<?xml version="1.0" encoding="utf-8"?>
<!-- Generator: Adobe Illustrator 24.0.1, SVG Export Plug-In . SVG Version: 6.00 Build 0)  -->
<svg version="1.1" id="Layer_1" xmlns="http://www.w3.org/2000/svg" xmlns:xlink="http://www.w3.org/1999/xlink" x="0px" y="0px"
	 viewBox="0 0 1366 768" style="enable-background:new 0 0 1366 768;" xml:space="preserve">
<style type="text/css">
	.st0{enable-background:new    ;}
	.st1{clip-path:url(#SVGID_2_);enable-background:new    ;}
	.st2{clip-path:url(#SVGID_4_);enable-background:new    ;}
	.st3{fill:#196788;}
	.st4{clip-path:url(#SVGID_6_);enable-background:new    ;}
	.st5{clip-path:url(#SVGID_8_);enable-background:new    ;}
	.st6{fill:#186383;}
	.st7{clip-path:url(#SVGID_10_);enable-background:new    ;}
	.st8{fill:#17607F;}
	.st9{clip-path:url(#SVGID_12_);enable-background:new    ;}
	.st10{clip-path:url(#SVGID_14_);enable-background:new    ;}
	.st11{fill:#165C7A;}
	.st12{clip-path:url(#SVGID_16_);enable-background:new    ;}
	.st13{clip-path:url(#SVGID_18_);enable-background:new    ;}
	.st14{clip-path:url(#SVGID_20_);enable-background:new    ;}
	.st15{clip-path:url(#SVGID_22_);enable-background:new    ;}
	.st16{clip-path:url(#SVGID_24_);enable-background:new    ;}
	.st17{clip-path:url(#SVGID_26_);enable-background:new    ;}
	.st18{clip-path:url(#SVGID_28_);enable-background:new    ;}
	.st19{clip-path:url(#SVGID_30_);enable-background:new    ;}
	.st20{clip-path:url(#SVGID_32_);enable-background:new    ;}
	.st21{clip-path:url(#SVGID_34_);enable-background:new    ;}
	.st22{clip-path:url(#SVGID_36_);enable-background:new    ;}
	.st23{clip-path:url(#SVGID_38_);enable-background:new    ;}
	.st24{clip-path:url(#SVGID_40_);enable-background:new    ;}
	.st25{fill:#186687;}
	.st26{clip-path:url(#SVGID_42_);enable-background:new    ;}
	.st27{clip-path:url(#SVGID_44_);enable-background:new    ;}
	.st28{fill:#155976;}
	.st29{clip-path:url(#SVGID_46_);enable-background:new    ;}
	.st30{clip-path:url(#SVGID_48_);enable-background:new    ;}
	.st31{clip-path:url(#SVGID_50_);enable-background:new    ;}
	.st32{clip-path:url(#SVGID_52_);enable-background:new    ;}
	.st33{clip-path:url(#SVGID_54_);enable-background:new    ;}
	.st34{fill:#858585;}
	.st35{fill:#8A8A8A;}
	.st36{clip-path:url(#SVGID_56_);enable-background:new    ;}
	.st37{clip-path:url(#SVGID_58_);enable-background:new    ;}
	.st38{clip-path:url(#SVGID_60_);enable-background:new    ;}
	.st39{clip-path:url(#SVGID_62_);enable-background:new    ;}
	.st40{clip-path:url(#SVGID_64_);enable-background:new    ;}
	.st41{clip-path:url(#SVGID_66_);enable-background:new    ;}
	.st42{clip-path:url(#SVGID_68_);enable-background:new    ;}
	.st43{fill:#8F8F8F;}
	.st44{clip-path:url(#SVGID_70_);enable-background:new    ;}
	.st45{clip-path:url(#SVGID_72_);enable-background:new    ;}
	.st46{clip-path:url(#SVGID_74_);enable-background:new    ;}
	.st47{clip-path:url(#SVGID_76_);enable-background:new    ;}
	.st48{clip-path:url(#SVGID_78_);enable-background:new    ;}
	.st49{fill:#999999;}
	.st50{fill:#989898;}
	.st51{clip-path:url(#SVGID_80_);enable-background:new    ;}
	.st52{clip-path:url(#SVGID_82_);enable-background:new    ;}
	.st53{fill:#F8F8F8;}
	.st54{clip-path:url(#SVGID_84_);enable-background:new    ;}
	.st55{fill:#949494;}
	.st56{clip-path:url(#SVGID_86_);enable-background:new    ;}
	.st57{clip-path:url(#SVGID_88_);enable-background:new    ;}
	.st58{clip-path:url(#SVGID_90_);enable-background:new    ;}
	.st59{clip-path:url(#SVGID_92_);enable-background:new    ;}
	.st60{clip-path:url(#SVGID_94_);enable-background:new    ;}
	.st61{clip-path:url(#SVGID_96_);enable-background:new    ;}
	.st62{clip-path:url(#SVGID_98_);enable-background:new    ;}
	.st63{clip-path:url(#SVGID_100_);enable-background:new    ;}
	.st64{clip-path:url(#SVGID_102_);enable-background:new    ;}
	.st65{clip-path:url(#SVGID_104_);enable-background:new    ;}
	.st66{clip-path:url(#SVGID_106_);enable-background:new    ;}
	.st67{clip-path:url(#SVGID_108_);enable-background:new    ;}
	.st68{clip-path:url(#SVGID_110_);enable-background:new    ;}
	.st69{clip-path:url(#SVGID_112_);enable-background:new    ;}
	.st70{clip-path:url(#SVGID_114_);enable-background:new    ;}
	.st71{clip-path:url(#SVGID_116_);enable-background:new    ;}
	.st72{clip-path:url(#SVGID_118_);enable-background:new    ;}
	.st73{fill:#28A7DC;}
	.st74{clip-path:url(#SVGID_120_);enable-background:new    ;}
	.st75{clip-path:url(#SVGID_122_);enable-background:new    ;}
	.st76{clip-path:url(#SVGID_124_);enable-background:new    ;}
	.st77{fill:#0095C1;}
	.st78{clip-path:url(#SVGID_126_);enable-background:new    ;}
	.st79{fill:#0083A9;}
	.st80{clip-path:url(#SVGID_128_);enable-background:new    ;}
	.st81{fill:#0086AD;}
	.st82{fill:#0088B0;}
	.st83{fill:#008BB4;}
	.st84{fill:#008EB8;}
	.st85{clip-path:url(#SVGID_130_);enable-background:new    ;}
	.st86{clip-path:url(#SVGID_132_);enable-background:new    ;}
	.st87{clip-path:url(#SVGID_134_);enable-background:new    ;}
	.st88{fill:#0091BB;}
	.st89{fill:#00BFF7;}
	.st90{clip-path:url(#SVGID_136_);enable-background:new    ;}
	.st91{clip-path:url(#SVGID_138_);enable-background:new    ;}
	.st92{clip-path:url(#SVGID_140_);enable-background:new    ;}
	.st93{clip-path:url(#SVGID_142_);enable-background:new    ;}
</style>
<g>
	<g>
		<g class="st0">
			<g class="st0">
				<defs>
					<path id="SVGID_1_" class="st0" d="M463.24,348.34l9.87-5.73c-0.02,7.82,5.5,17.38,12.31,21.32l-9.87,5.73
						C468.73,365.72,463.22,356.16,463.24,348.34z"/>
				</defs>
				<clipPath id="SVGID_2_">
					<use xlink:href="#SVGID_1_"  style="overflow:visible;"/>
				</clipPath>
				<g class="st1">
					<path d="M463.24,348.34l9.87-5.73c0,0.99,0.08,2.02,0.25,3.05l-9.87,5.73C463.32,350.36,463.24,349.33,463.24,348.34"/>
					<path d="M463.49,351.39l9.87-5.73c0.31,1.9,0.88,3.84,1.68,5.73l-9.87,5.73C464.37,355.23,463.8,353.29,463.49,351.39"/>
					<path d="M465.17,357.12l9.87-5.73c0.84,2,1.93,3.95,3.19,5.72l-9.87,5.73C467.1,361.06,466.01,359.12,465.17,357.12"/>
					<path d="M468.36,362.84l9.87-5.73c1.2,1.69,2.56,3.23,4.03,4.52l-9.87,5.73C470.92,366.07,469.56,364.53,468.36,362.84"/>
					<path d="M472.39,367.36l9.87-5.73c0.97,0.86,1.99,1.61,3.05,2.23l-9.87,5.73C474.38,368.97,473.36,368.22,472.39,367.36"/>
					<path d="M475.44,369.59l9.87-5.73c0.04,0.02,0.07,0.04,0.11,0.06l-9.87,5.73C475.51,369.64,475.47,369.61,475.44,369.59"/>
				</g>
			</g>
			<g class="st0">
				<defs>
					<path id="SVGID_3_" class="st0" d="M535.16,285.99c-3.29,1.91-6.58,3.82-9.87,5.73c-0.6-0.87-1.17-1.77-1.7-2.69
						c3.29-1.91,6.57-3.82,9.86-5.73c-3.29,1.91-6.57,3.82-9.86,5.73c-0.51-0.88-0.99-1.79-1.42-2.71c3.29-1.91,6.58-3.82,9.87-5.73
						C532.93,282.47,533.98,284.28,535.16,285.99z"/>
				</defs>
				<clipPath id="SVGID_4_">
					<use xlink:href="#SVGID_3_"  style="overflow:visible;"/>
				</clipPath>
				<g class="st2">
					<path class="st3" d="M521.45,284.73l9.87-5.73c1.09,2.58,2.49,5.09,4.12,7.39l-9.87,5.73
						C523.94,289.83,522.54,287.32,521.45,284.73"/>
				</g>
			</g>
			<g class="st0">
				<defs>
					<path id="SVGID_5_" class="st0" d="M531.98,280.48c0.02,0.04,0.04,0.07,0.05,0.11c-3.29,1.91-6.58,3.82-9.87,5.73
						c-0.02-0.04-0.04-0.07-0.05-0.11C525.4,284.31,528.69,282.39,531.98,280.48z"/>
				</defs>
				<clipPath id="SVGID_6_">
					<use xlink:href="#SVGID_5_"  style="overflow:visible;"/>
				</clipPath>
				<g class="st4">
					<path class="st3" d="M521.45,284.73l9.87-5.73c1.09,2.58,2.49,5.09,4.12,7.39l-9.87,5.73
						C523.94,289.83,522.54,287.32,521.45,284.73"/>
				</g>
			</g>
			<g class="st0">
				<defs>
					<path id="SVGID_7_" class="st0" d="M535.16,285.99c0.21,0.3,0.41,0.59,0.63,0.88c-3.29,1.91-6.58,3.82-9.87,5.73
						c-0.21-0.29-0.42-0.58-0.63-0.88C528.58,289.81,531.87,287.9,535.16,285.99z"/>
				</defs>
				<clipPath id="SVGID_8_">
					<use xlink:href="#SVGID_7_"  style="overflow:visible;"/>
				</clipPath>
				<g class="st5">
					<path class="st3" d="M521.45,284.73l9.87-5.73c1.09,2.58,2.49,5.09,4.12,7.39l-9.87,5.73
						C523.94,289.83,522.54,287.32,521.45,284.73"/>
					<path class="st6" d="M525.57,292.12l9.87-5.73c1.55,2.18,3.31,4.17,5.2,5.84l-9.87,5.73
						C528.88,296.29,527.12,294.3,525.57,292.12"/>
				</g>
			</g>
			<g class="st0">
				<defs>
					<path id="SVGID_9_" class="st0" d="M531.98,280.48c-3.29,1.91-6.58,3.82-9.87,5.73c-1.53-3.24-2.58-6.65-2.98-9.92
						c3.29-1.91,6.58-3.82,9.87-5.73C529.4,273.83,530.45,277.24,531.98,280.48z"/>
				</defs>
				<clipPath id="SVGID_10_">
					<use xlink:href="#SVGID_9_"  style="overflow:visible;"/>
				</clipPath>
				<g class="st7">
					<path class="st8" d="M518.96,273.41l9.87-5.73c0,1.28,0.11,2.6,0.32,3.94l-9.87,5.73
						C519.07,276.01,518.96,274.69,518.96,273.41"/>
					<path class="st6" d="M519.29,277.35l9.87-5.73c0.4,2.45,1.14,4.95,2.17,7.39l-9.87,5.73
						C520.43,282.3,519.68,279.79,519.29,277.35"/>
					<path class="st3" d="M521.45,284.73l9.87-5.73c1.09,2.58,2.49,5.09,4.12,7.39l-9.87,5.73
						C523.94,289.83,522.54,287.32,521.45,284.73"/>
				</g>
			</g>
			<g class="st0">
				<defs>
					<path id="SVGID_11_" class="st0" d="M529,270.56c-3.29,1.91-6.58,3.82-9.87,5.73c-0.01-0.09-0.02-0.18-0.03-0.27
						c3.29-1.91,6.58-3.82,9.87-5.73C528.98,270.38,528.99,270.47,529,270.56z"/>
				</defs>
				<clipPath id="SVGID_12_">
					<use xlink:href="#SVGID_11_"  style="overflow:visible;"/>
				</clipPath>
				<g class="st9">
					<path class="st8" d="M518.96,273.41l9.87-5.73c0,1.28,0.11,2.6,0.32,3.94l-9.87,5.73
						C519.07,276.01,518.96,274.69,518.96,273.41"/>
				</g>
			</g>
			<g class="st0">
				<defs>
					<path id="SVGID_13_" class="st0" d="M544.71,295.18c-3.11,1.78-6.8,3.93-9.87,5.73c-0.84-0.48-1.66-1.03-2.46-1.64
						c3.29-1.91,6.58-3.82,9.87-5.73C543.05,294.15,543.88,294.7,544.71,295.18z"/>
				</defs>
				<clipPath id="SVGID_14_">
					<use xlink:href="#SVGID_13_"  style="overflow:visible;"/>
				</clipPath>
				<g class="st10">
					<path class="st8" d="M530.77,297.96l9.87-5.73c1.26,1.11,2.57,2.08,3.93,2.88l-9.87,5.73
						C533.35,300.04,532.03,299.07,530.77,297.96"/>
					<path class="st11" d="M534.7,300.84l9.87-5.73c0.05,0.03,0.09,0.06,0.14,0.08l-9.87,5.73
						C534.8,300.89,534.75,300.86,534.7,300.84"/>
				</g>
			</g>
			<g class="st0">
				<defs>
					<path id="SVGID_15_" class="st0" d="M528.83,267.67c0,0.86,0.05,1.74,0.14,2.62c-3.29,1.91-6.58,3.82-9.87,5.73
						c-0.1-0.89-0.15-1.76-0.14-2.62C521.92,271.69,525.87,269.39,528.83,267.67z"/>
				</defs>
				<clipPath id="SVGID_16_">
					<use xlink:href="#SVGID_15_"  style="overflow:visible;"/>
				</clipPath>
				<g class="st12">
					<path class="st8" d="M518.96,273.41l9.87-5.73c0,1.28,0.11,2.6,0.32,3.94l-9.87,5.73
						C519.07,276.01,518.96,274.69,518.96,273.41"/>
				</g>
			</g>
			<g class="st0">
				<defs>
					<path id="SVGID_17_" class="st0" d="M519.62,273.79l9.87-5.73c-0.03,9.69,6.79,21.49,15.22,26.36l-9.87,5.73
						C526.41,295.28,519.6,283.48,519.62,273.79z"/>
				</defs>
				<clipPath id="SVGID_18_">
					<use xlink:href="#SVGID_17_"  style="overflow:visible;"/>
				</clipPath>
				<g class="st13">
					<path d="M519.62,273.79l9.87-5.73c0,1.23,0.1,2.5,0.31,3.79l-9.87,5.73C519.73,276.29,519.62,275.02,519.62,273.79"/>
					<path d="M519.94,277.58l9.87-5.73c0.38,2.34,1.09,4.74,2.07,7.08l-9.87,5.73C521.03,282.32,520.32,279.92,519.94,277.58"/>
					<path d="M522.01,284.65l9.87-5.73c1.04,2.47,2.38,4.87,3.94,7.06l-9.87,5.73C524.39,289.52,523.05,287.12,522.01,284.65"/>
					<path d="M525.95,291.71l9.87-5.73c1.48,2.09,3.17,3.99,4.98,5.59l-9.87,5.73C529.11,295.7,527.43,293.8,525.95,291.71"/>
					<path d="M530.93,297.3l9.87-5.73c1.21,1.07,2.47,2,3.78,2.77l-9.87,5.73C533.4,299.3,532.14,298.37,530.93,297.3"/>
					<path d="M534.71,300.07l9.87-5.73c0.05,0.03,0.09,0.05,0.14,0.08l-9.87,5.73C534.8,300.12,534.76,300.1,534.71,300.07"/>
				</g>
			</g>
			<g class="st0">
				<defs>
					<path id="SVGID_19_" class="st0" d="M576.26,344.08c-3.29,1.91-6.58,3.82-9.87,5.73c-0.59-0.88-1.16-1.79-1.69-2.71
						c3.29-1.91,6.57-3.82,9.86-5.73c-3.29,1.91-6.57,3.82-9.86,5.73c-0.5-0.87-0.98-1.76-1.42-2.66c3.29-1.91,6.58-3.82,9.87-5.73
						C574.06,340.56,575.1,342.36,576.26,344.08z"/>
				</defs>
				<clipPath id="SVGID_20_">
					<use xlink:href="#SVGID_19_"  style="overflow:visible;"/>
				</clipPath>
				<g class="st14">
					<path class="st3" d="M562.14,341.94l9.87-5.73c1.3,3.1,2.98,6.1,4.94,8.86l-9.87,5.73
						C565.12,348.05,563.44,345.04,562.14,341.94"/>
				</g>
			</g>
			<g class="st0">
				<defs>
					<path id="SVGID_21_" class="st0" d="M573.07,338.55c0.03,0.05,0.05,0.11,0.08,0.16c-3.29,1.91-6.58,3.82-9.87,5.73
						c-0.03-0.05-0.05-0.11-0.08-0.16C566.49,342.37,569.78,340.46,573.07,338.55z"/>
				</defs>
				<clipPath id="SVGID_22_">
					<use xlink:href="#SVGID_21_"  style="overflow:visible;"/>
				</clipPath>
				<g class="st15">
					<path class="st3" d="M562.14,341.94l9.87-5.73c1.3,3.1,2.98,6.1,4.94,8.86l-9.87,5.73
						C565.12,348.05,563.44,345.04,562.14,341.94"/>
				</g>
			</g>
			<g class="st0">
				<defs>
					<path id="SVGID_23_" class="st0" d="M576.26,344.08c0.35,0.51,0.7,1.02,1.07,1.52c-3.29,1.91-6.58,3.82-9.87,5.73
						c-0.36-0.5-0.72-1-1.07-1.52C569.68,347.9,572.97,345.99,576.26,344.08z"/>
				</defs>
				<clipPath id="SVGID_24_">
					<use xlink:href="#SVGID_23_"  style="overflow:visible;"/>
				</clipPath>
				<g class="st16">
					<path class="st3" d="M562.14,341.94l9.87-5.73c1.3,3.1,2.98,6.1,4.94,8.86l-9.87,5.73
						C565.12,348.05,563.44,345.04,562.14,341.94"/>
					<path class="st6" d="M567.07,350.8l9.87-5.73c1.86,2.61,3.96,4.99,6.23,7l-9.87,5.73C571.03,355.79,568.93,353.41,567.07,350.8
						"/>
				</g>
			</g>
			<g class="st0">
				<defs>
					<path id="SVGID_25_" class="st0" d="M573.07,338.55c-3.29,1.91-6.58,3.82-9.87,5.73c-2.07-4.24-3.46-8.73-3.9-13
						c3.29-1.91,6.58-3.82,9.87-5.73C569.61,329.82,570.99,334.31,573.07,338.55z"/>
				</defs>
				<clipPath id="SVGID_26_">
					<use xlink:href="#SVGID_25_"  style="overflow:visible;"/>
				</clipPath>
				<g class="st17">
					<path class="st8" d="M559.15,328.38l9.87-5.73c0,1.54,0.13,3.11,0.39,4.71l-9.87,5.73
						C559.28,331.49,559.15,329.91,559.15,328.38"/>
					<path class="st6" d="M559.54,333.09l9.87-5.73c0.47,2.93,1.37,5.93,2.6,8.85l-9.87,5.73
						C560.91,339.02,560.01,336.02,559.54,333.09"/>
					<path class="st3" d="M562.14,341.94l9.87-5.73c1.3,3.1,2.98,6.1,4.94,8.86l-9.87,5.73
						C565.12,348.05,563.44,345.04,562.14,341.94"/>
				</g>
			</g>
			<g class="st0">
				<defs>
					<path id="SVGID_27_" class="st0" d="M569.17,325.54c-3.29,1.91-6.58,3.82-9.87,5.73c-0.01-0.12-0.02-0.23-0.03-0.35
						c3.29-1.91,6.58-3.82,9.87-5.73C569.14,325.31,569.16,325.43,569.17,325.54z"/>
				</defs>
				<clipPath id="SVGID_28_">
					<use xlink:href="#SVGID_27_"  style="overflow:visible;"/>
				</clipPath>
				<g class="st18">
					<path class="st8" d="M559.15,328.38l9.87-5.73c0,1.54,0.13,3.11,0.39,4.71l-9.87,5.73
						C559.28,331.49,559.15,329.91,559.15,328.38"/>
				</g>
			</g>
			<g class="st0">
				<defs>
					<path id="SVGID_29_" class="st0" d="M585.86,354.2c0.72,0.51,1.44,0.98,2.18,1.4l-9.87,5.73c-0.74-0.43-1.47-0.9-2.18-1.4
						C579.29,358.02,582.57,356.11,585.86,354.2z"/>
				</defs>
				<clipPath id="SVGID_30_">
					<use xlink:href="#SVGID_29_"  style="overflow:visible;"/>
				</clipPath>
				<g class="st19">
					<path class="st8" d="M573.31,357.8l9.87-5.73c1.5,1.33,3.08,2.49,4.7,3.44l-9.87,5.73
						C576.39,360.28,574.81,359.12,573.31,357.8"/>
					<path class="st11" d="M578.01,361.24l9.87-5.73c0.06,0.03,0.11,0.07,0.17,0.1l-9.87,5.73
						C578.12,361.3,578.07,361.27,578.01,361.24"/>
				</g>
			</g>
			<g class="st0">
				<defs>
					<path id="SVGID_31_" class="st0" d="M569.02,322.64c0,0.84,0.04,1.69,0.11,2.55c-3.29,1.91-6.58,3.82-9.87,5.73
						c-0.08-0.86-0.12-1.71-0.11-2.55C562.11,326.66,566.06,324.36,569.02,322.64z"/>
				</defs>
				<clipPath id="SVGID_32_">
					<use xlink:href="#SVGID_31_"  style="overflow:visible;"/>
				</clipPath>
				<g class="st20">
					<path class="st8" d="M559.15,328.38l9.87-5.73c0,1.54,0.13,3.11,0.39,4.71l-9.87,5.73
						C559.28,331.49,559.15,329.91,559.15,328.38"/>
				</g>
			</g>
			<g class="st0">
				<defs>
					<path id="SVGID_33_" class="st0" d="M559.82,328.76l9.87-5.73c-0.03,11.69,8.19,25.93,18.36,31.8l-9.87,5.73
						C568.01,354.69,559.79,340.45,559.82,328.76z"/>
				</defs>
				<clipPath id="SVGID_34_">
					<use xlink:href="#SVGID_33_"  style="overflow:visible;"/>
				</clipPath>
				<g class="st21">
					<path d="M559.82,328.76l9.87-5.73c0,1.49,0.13,3.02,0.38,4.57l-9.87,5.73C559.95,331.78,559.82,330.25,559.82,328.76"/>
					<path d="M560.2,333.33l9.87-5.73c0.46,2.83,1.32,5.72,2.5,8.54l-9.87,5.73C561.52,339.05,560.66,336.16,560.2,333.33"/>
					<path d="M562.7,341.87l9.87-5.73c1.25,2.98,2.87,5.87,4.75,8.52l-9.87,5.73C565.57,347.74,563.95,344.85,562.7,341.87"/>
					<path d="M567.45,350.39l9.87-5.73c1.79,2.52,3.82,4.81,6.01,6.74l-9.87,5.73C571.27,355.2,569.24,352.91,567.45,350.39"/>
					<path d="M573.46,357.14l9.87-5.73c1.45,1.28,2.98,2.41,4.55,3.33l-9.87,5.73C576.44,359.54,574.92,358.42,573.46,357.14"/>
					<path d="M578.02,360.47l9.87-5.73c0.05,0.03,0.11,0.06,0.16,0.1l-9.87,5.73C578.13,360.53,578.07,360.5,578.02,360.47"/>
				</g>
			</g>
			<g>
				<polygon points="463.77,162.23 473.63,156.5 473.11,342.6 463.24,348.34 				"/>
			</g>
			<g>
				<polygon class="st3" points="519.02,253.88 528.88,248.15 528.83,267.67 518.96,273.41 				"/>
			</g>
			<g>
				<polygon points="519.68,254.27 529.55,248.53 529.49,268.05 519.62,273.79 				"/>
			</g>
			<g class="st0">
				<defs>
					<path id="SVGID_35_" class="st0" d="M529.08,245.45c-0.13,0.84-0.19,1.75-0.19,2.7l-9.87,5.73c0-0.95,0.07-1.86,0.19-2.7
						C522.5,249.27,525.79,247.36,529.08,245.45z"/>
				</defs>
				<clipPath id="SVGID_36_">
					<use xlink:href="#SVGID_35_"  style="overflow:visible;"/>
				</clipPath>
				<g class="st22">
					<path class="st11" d="M519.74,248.89l9.87-5.73c-0.4,1.23-0.64,2.63-0.7,4.18l-9.87,5.73
						C519.1,251.52,519.34,250.12,519.74,248.89"/>
					<path class="st8" d="M519.03,253.07l9.87-5.73c-0.01,0.27-0.02,0.54-0.02,0.82l-9.87,5.73
						C519.02,253.61,519.02,253.33,519.03,253.07"/>
				</g>
			</g>
			<g class="st0">
				<defs>
					<path id="SVGID_37_" class="st0" d="M529.08,245.45c-3.29,1.91-6.58,3.82-9.87,5.73c0.05-0.36,0.12-0.72,0.2-1.06
						c3.29-1.91,6.58-3.82,9.87-5.73C529.2,244.73,529.13,245.08,529.08,245.45z"/>
				</defs>
				<clipPath id="SVGID_38_">
					<use xlink:href="#SVGID_37_"  style="overflow:visible;"/>
				</clipPath>
				<g class="st23">
					<path class="st11" d="M519.74,248.89l9.87-5.73c-0.4,1.23-0.64,2.63-0.7,4.18l-9.87,5.73
						C519.1,251.52,519.34,250.12,519.74,248.89"/>
				</g>
			</g>
			<g class="st0">
				<defs>
					<path id="SVGID_39_" class="st0" d="M477.27,174.18l9.87-5.73c-0.01,2.51,1.76,5.57,3.95,6.83l-9.87,5.73
						C479.03,179.74,477.26,176.69,477.27,174.18z"/>
				</defs>
				<clipPath id="SVGID_40_">
					<use xlink:href="#SVGID_39_"  style="overflow:visible;"/>
				</clipPath>
				<g class="st24">
					<path class="st8" d="M477.27,174.18l9.87-5.73c0,0.32,0.03,0.65,0.08,0.98l-9.87,5.73
						C477.3,174.82,477.27,174.49,477.27,174.18"/>
					<path class="st6" d="M477.35,175.15l9.87-5.73c0.1,0.61,0.28,1.23,0.54,1.83l-9.87,5.73
						C477.63,176.38,477.45,175.76,477.35,175.15"/>
					<path class="st3" d="M477.89,176.98l9.87-5.73c0.27,0.64,0.62,1.26,1.02,1.83l-9.87,5.73
						C478.5,178.25,478.16,177.62,477.89,176.98"/>
					<path class="st6" d="M478.91,178.82l9.87-5.73c0.38,0.54,0.82,1.03,1.29,1.45l-9.87,5.73
						C479.73,179.85,479.29,179.36,478.91,178.82"/>
					<path class="st8" d="M480.2,180.27l9.87-5.73c0.31,0.28,0.64,0.52,0.98,0.72l-9.87,5.73
						C480.84,180.78,480.51,180.54,480.2,180.27"/>
					<path class="st11" d="M481.18,180.98l9.87-5.73c0.01,0.01,0.02,0.01,0.04,0.02l-9.87,5.73
						C481.2,181,481.19,180.99,481.18,180.98"/>
				</g>
			</g>
			<g>
				<polygon class="st3" points="559.19,314.97 569.06,309.24 569.02,322.64 559.15,328.38 				"/>
			</g>
			<g>
				<polygon class="st25" points="534.85,300.92 544.71,295.18 569.06,309.24 559.19,314.97 				"/>
			</g>
			<g>
				<polygon points="559.86,314.59 569.73,308.86 569.69,323.03 559.82,328.76 				"/>
			</g>
			<g>
				<polygon points="534.85,300.15 544.71,294.41 569.73,308.86 559.86,314.59 				"/>
			</g>
			<g class="st0">
				<defs>
					<path id="SVGID_41_" class="st0" d="M467.37,154.32l9.87-5.73c-2.22,1.29-3.59,4.03-3.6,7.92l-9.87,5.73
						C463.78,158.35,465.15,155.61,467.37,154.32z"/>
				</defs>
				<clipPath id="SVGID_42_">
					<use xlink:href="#SVGID_41_"  style="overflow:visible;"/>
				</clipPath>
				<g class="st26">
					<path d="M467.37,154.32l9.87-5.73c-1.39,0.81-2.45,2.18-3.05,4.05l-9.87,5.73C464.93,156.5,465.98,155.13,467.37,154.32"/>
					<path d="M464.33,158.37l9.87-5.73c-0.31,0.95-0.49,2.03-0.54,3.24l-9.87,5.73C463.83,160.4,464.02,159.32,464.33,158.37"/>
					<path d="M463.78,161.6l9.87-5.73c-0.01,0.21-0.01,0.42-0.01,0.63l-9.87,5.73C463.77,162.02,463.77,161.81,463.78,161.6"/>
				</g>
			</g>
			<g>
				<polygon class="st3" points="477.29,168.59 487.15,162.86 487.14,168.44 477.27,174.18 				"/>
			</g>
			<g class="st0">
				<defs>
					<path id="SVGID_43_" class="st0" d="M532.09,239.02c-1.34,1.27-2.31,3.08-2.81,5.37c-3.29,1.91-6.58,3.82-9.87,5.73
						c0.5-2.28,1.48-4.09,2.81-5.37C525.51,242.84,528.8,240.93,532.09,239.02z"/>
				</defs>
				<clipPath id="SVGID_44_">
					<use xlink:href="#SVGID_43_"  style="overflow:visible;"/>
				</clipPath>
				<g class="st27">
					<path class="st28" d="M523.67,243.66l9.87-5.73c-1.79,1.04-3.16,2.82-3.93,5.23l-9.87,5.73
						C520.51,246.48,521.88,244.7,523.67,243.66"/>
					<path class="st11" d="M519.74,248.89l9.87-5.73c-0.4,1.23-0.64,2.63-0.7,4.18l-9.87,5.73
						C519.1,251.52,519.34,250.12,519.74,248.89"/>
				</g>
			</g>
			<g class="st0">
				<defs>
					<path id="SVGID_45_" class="st0" d="M532.11,239c-0.01,0.01-0.01,0.01-0.02,0.02c-3.29,1.91-6.58,3.82-9.87,5.73
						c0.01-0.01,0.01-0.01,0.02-0.02C525.53,242.82,528.82,240.91,532.11,239z"/>
				</defs>
				<clipPath id="SVGID_46_">
					<use xlink:href="#SVGID_45_"  style="overflow:visible;"/>
				</clipPath>
				<g class="st29">
					<path class="st28" d="M523.67,243.66l9.87-5.73c-1.79,1.04-3.16,2.82-3.93,5.23l-9.87,5.73
						C520.51,246.48,521.88,244.7,523.67,243.66"/>
				</g>
			</g>
			<g class="st0">
				<defs>
					<path id="SVGID_47_" class="st0" d="M487.15,162.86c-3.29,1.91-6.58,3.82-9.87,5.73c0-1.25,0.45-2.13,1.16-2.54l9.87-5.73
						C487.6,160.73,487.16,161.61,487.15,162.86z"/>
				</defs>
				<clipPath id="SVGID_48_">
					<use xlink:href="#SVGID_47_"  style="overflow:visible;"/>
				</clipPath>
				<g class="st30">
					<path class="st28" d="M478.44,166.06l9.87-5.73c-0.44,0.26-0.78,0.7-0.98,1.3l-9.87,5.73
						C477.66,166.75,478,166.31,478.44,166.06"/>
					<path class="st11" d="M477.47,167.35l9.87-5.73c-0.1,0.31-0.16,0.65-0.17,1.04l-9.87,5.73
						C477.31,168.01,477.37,167.66,477.47,167.35"/>
					<path class="st8" d="M477.29,168.39l9.87-5.73c0,0.07,0,0.13,0,0.2l-9.87,5.73C477.29,168.52,477.29,168.46,477.29,168.39"/>
				</g>
			</g>
			<g class="st0">
				<defs>
					<path id="SVGID_49_" class="st0" d="M524.14,244.47l9.87-5.73c-2.74,1.59-4.44,4.98-4.46,9.8l-9.87,5.73
						C519.69,249.45,521.39,246.06,524.14,244.47z"/>
				</defs>
				<clipPath id="SVGID_50_">
					<use xlink:href="#SVGID_49_"  style="overflow:visible;"/>
				</clipPath>
				<g class="st31">
					<path d="M524.14,244.47l9.87-5.73c-1.71,1-3.02,2.69-3.76,5l-9.87,5.73C521.11,247.16,522.42,245.47,524.14,244.47"/>
					<path d="M520.37,249.47l9.87-5.73c-0.38,1.18-0.61,2.52-0.67,4.01l-9.87,5.73C519.76,251.99,519.99,250.65,520.37,249.47"/>
					<path d="M519.7,253.48l9.87-5.73c-0.01,0.26-0.02,0.52-0.02,0.79l-9.87,5.73C519.68,254,519.69,253.74,519.7,253.48"/>
				</g>
			</g>
			<g class="st0">
				<defs>
					<path id="SVGID_51_" class="st0" d="M532.11,239c-0.1,0.08-0.22,0.13-0.33,0.19c-0.12,0.07-0.23,0.14-0.35,0.2
						c-0.07,0.04-0.17,0.1-0.24,0.14c-0.3,0.18-0.61,0.35-0.91,0.53c-2.68,1.56-5.36,3.12-8.04,4.68c0.44-0.42,0.92-0.78,1.44-1.08
						l9.87-5.73C533.03,238.22,532.55,238.58,532.11,239z"/>
				</defs>
				<clipPath id="SVGID_52_">
					<use xlink:href="#SVGID_51_"  style="overflow:visible;"/>
				</clipPath>
				<g class="st32">
					<path class="st28" d="M523.67,243.66l9.87-5.73c-1.79,1.04-3.16,2.82-3.93,5.23l-9.87,5.73
						C520.51,246.48,521.88,244.7,523.67,243.66"/>
				</g>
			</g>
			<g>
				<polygon class="st25" points="481.22,181 491.08,175.27 502.33,181.76 492.46,187.49 				"/>
			</g>
			<g class="st0">
				<defs>
					<path id="SVGID_53_" class="st0" d="M478.44,166.06l9.87-5.73c0.72-0.42,1.72-0.36,2.82,0.27l-9.87,5.73
						C480.16,165.7,479.16,165.64,478.44,166.06z"/>
				</defs>
				<clipPath id="SVGID_54_">
					<use xlink:href="#SVGID_53_"  style="overflow:visible;"/>
				</clipPath>
				<g class="st33">
					<path class="st34" d="M478.44,166.06l9.87-5.73c0.5-0.29,1.14-0.35,1.85-0.15l-9.87,5.73
						C479.58,165.7,478.95,165.76,478.44,166.06"/>
					<path class="st35" d="M480.29,165.91l9.87-5.73c0.31,0.09,0.63,0.23,0.96,0.42l-9.87,5.73
						C480.93,166.14,480.6,166,480.29,165.91"/>
				</g>
			</g>
			<g class="st0">
				<defs>
					<path id="SVGID_55_" class="st0" d="M467.37,154.32l9.87-5.73c2.25-1.31,5.36-1.12,8.78,0.86l-9.87,5.73
						C472.73,153.2,469.62,153.01,467.37,154.32z"/>
				</defs>
				<clipPath id="SVGID_56_">
					<use xlink:href="#SVGID_55_"  style="overflow:visible;"/>
				</clipPath>
				<g class="st36">
					<path class="st28" d="M467.37,154.32l9.87-5.73c1.57-0.91,3.55-1.1,5.78-0.46l-9.87,5.73
						C470.92,153.22,468.94,153.41,467.37,154.32"/>
					<path class="st11" d="M473.15,153.86l9.87-5.73c0.96,0.28,1.97,0.71,3.01,1.31l-9.87,5.73
						C475.12,154.58,474.11,154.14,473.15,153.86"/>
				</g>
			</g>
			<g class="st0">
				<defs>
					<path id="SVGID_57_" class="st0" d="M505.14,182.04l-9.87,5.73c-0.72,0.42-1.71,0.36-2.81-0.28l9.87-5.73
						C503.43,182.39,504.42,182.45,505.14,182.04z"/>
				</defs>
				<clipPath id="SVGID_58_">
					<use xlink:href="#SVGID_57_"  style="overflow:visible;"/>
				</clipPath>
				<g class="st37">
					<path class="st11" d="M492.46,187.49l9.87-5.73c0.33,0.19,0.66,0.33,0.97,0.42l-9.87,5.73
						C493.12,187.83,492.79,187.69,492.46,187.49"/>
					<path class="st28" d="M493.43,187.92l9.87-5.73c0.71,0.21,1.35,0.15,1.85-0.15l-9.87,5.73
						C494.77,188.06,494.14,188.12,493.43,187.92"/>
				</g>
			</g>
			<g class="st0">
				<defs>
					<path id="SVGID_59_" class="st0" d="M628.99,394.85c-3.29,1.91-6.58,3.82-9.87,5.73c-0.6-0.86-1.16-1.76-1.69-2.67
						c3.29-1.91,6.57-3.82,9.86-5.73c-3.29,1.91-6.57,3.82-9.86,5.73c-0.51-0.88-0.98-1.77-1.41-2.68c3.29-1.91,6.58-3.82,9.87-5.73
						C626.77,391.35,627.82,393.16,628.99,394.85z"/>
				</defs>
				<clipPath id="SVGID_60_">
					<use xlink:href="#SVGID_59_"  style="overflow:visible;"/>
				</clipPath>
				<g class="st38">
					<path class="st3" d="M615.29,393.61l9.87-5.73c1.09,2.58,2.49,5.09,4.12,7.39l-9.87,5.73
						C617.78,398.71,616.38,396.19,615.29,393.61"/>
				</g>
			</g>
			<g class="st0">
				<defs>
					<path id="SVGID_61_" class="st0" d="M625.83,389.39c0.02,0.04,0.04,0.07,0.05,0.11c-3.29,1.91-6.58,3.82-9.87,5.73
						c-0.02-0.04-0.04-0.07-0.05-0.11C619.26,393.21,622.54,391.3,625.83,389.39z"/>
				</defs>
				<clipPath id="SVGID_62_">
					<use xlink:href="#SVGID_61_"  style="overflow:visible;"/>
				</clipPath>
				<g class="st39">
					<path class="st3" d="M615.29,393.61l9.87-5.73c1.09,2.58,2.49,5.09,4.12,7.39l-9.87,5.73
						C617.78,398.71,616.38,396.19,615.29,393.61"/>
				</g>
			</g>
			<g class="st0">
				<defs>
					<path id="SVGID_63_" class="st0" d="M466.89,153.5l9.87-5.73c2.37-1.38,5.65-1.18,9.26,0.91l-9.87,5.73
						C472.54,152.32,469.26,152.12,466.89,153.5z"/>
				</defs>
				<clipPath id="SVGID_64_">
					<use xlink:href="#SVGID_63_"  style="overflow:visible;"/>
				</clipPath>
				<g class="st40">
					<path d="M466.89,153.5l9.87-5.73c1.65-0.96,3.74-1.16,6.08-0.48l-9.87,5.73C470.64,152.34,468.54,152.54,466.89,153.5"/>
					<path d="M472.98,153.02l9.87-5.73c1.02,0.29,2.08,0.75,3.18,1.39l-9.87,5.73C475.06,153.77,474,153.31,472.98,153.02"/>
				</g>
			</g>
			<g class="st0">
				<defs>
					<path id="SVGID_65_" class="st0" d="M628.99,394.85c0.21,0.3,0.42,0.6,0.64,0.9c-3.29,1.91-6.58,3.82-9.87,5.73
						c-0.22-0.3-0.43-0.6-0.64-0.9C622.41,398.67,625.7,396.76,628.99,394.85z"/>
				</defs>
				<clipPath id="SVGID_66_">
					<use xlink:href="#SVGID_65_"  style="overflow:visible;"/>
				</clipPath>
				<g class="st41">
					<path class="st3" d="M615.29,393.61l9.87-5.73c1.09,2.58,2.49,5.09,4.12,7.39l-9.87,5.73
						C617.78,398.71,616.38,396.19,615.29,393.61"/>
					<path class="st6" d="M619.41,401l9.87-5.73c1.55,2.18,3.31,4.17,5.2,5.84l-9.87,5.73C622.72,405.17,620.96,403.18,619.41,401"
						/>
				</g>
			</g>
			<g class="st0">
				<defs>
					<path id="SVGID_67_" class="st0" d="M505.14,182.04l-9.87,5.73c0.71-0.41,1.15-1.29,1.15-2.54l9.87-5.73
						C506.29,180.75,505.85,181.62,505.14,182.04z"/>
				</defs>
				<clipPath id="SVGID_68_">
					<use xlink:href="#SVGID_67_"  style="overflow:visible;"/>
				</clipPath>
				<g class="st42">
					<path class="st43" d="M496.43,185.24l9.87-5.73c0,0.07,0,0.14,0,0.2l-9.87,5.73C496.42,185.37,496.43,185.3,496.43,185.24"/>
					<path class="st35" d="M496.42,185.44l9.87-5.73c-0.02,0.39-0.08,0.73-0.17,1.04l-9.87,5.73
						C496.34,186.17,496.4,185.82,496.42,185.44"/>
					<path class="st34" d="M496.25,186.48l9.87-5.73c-0.19,0.6-0.53,1.04-0.97,1.29l-9.87,5.73
						C495.72,187.51,496.05,187.07,496.25,186.48"/>
				</g>
			</g>
			<g class="st0">
				<defs>
					<path id="SVGID_69_" class="st0" d="M625.83,389.39c-3.29,1.91-6.58,3.82-9.87,5.73c-1.54-3.25-2.59-6.66-2.99-9.94
						c3.29-1.91,6.58-3.82,9.87-5.73C623.24,382.72,624.3,386.13,625.83,389.39z"/>
				</defs>
				<clipPath id="SVGID_70_">
					<use xlink:href="#SVGID_69_"  style="overflow:visible;"/>
				</clipPath>
				<g class="st44">
					<path class="st8" d="M612.8,382.29l9.87-5.73c0,1.28,0.11,2.6,0.32,3.94l-9.87,5.73C612.91,384.89,612.8,383.57,612.8,382.29"
						/>
					<path class="st6" d="M613.13,386.22l9.87-5.73c0.4,2.45,1.14,4.95,2.17,7.39l-9.87,5.73
						C614.27,391.17,613.52,388.67,613.13,386.22"/>
					<path class="st3" d="M615.29,393.61l9.87-5.73c1.09,2.58,2.49,5.09,4.12,7.39l-9.87,5.73
						C617.78,398.71,616.38,396.19,615.29,393.61"/>
				</g>
			</g>
			<g class="st0">
				<defs>
					<path id="SVGID_71_" class="st0" d="M622.84,379.44c-3.29,1.91-6.58,3.82-9.87,5.73c-0.01-0.09-0.02-0.18-0.03-0.27
						c3.29-1.91,6.58-3.82,9.87-5.73C622.82,379.26,622.83,379.35,622.84,379.44z"/>
				</defs>
				<clipPath id="SVGID_72_">
					<use xlink:href="#SVGID_71_"  style="overflow:visible;"/>
				</clipPath>
				<g class="st45">
					<path class="st8" d="M612.8,382.29l9.87-5.73c0,1.28,0.11,2.6,0.32,3.94l-9.87,5.73C612.91,384.89,612.8,383.57,612.8,382.29"
						/>
				</g>
			</g>
			<g class="st0">
				<defs>
					<path id="SVGID_73_" class="st0" d="M636.11,402.44c0.8,0.6,1.61,1.15,2.44,1.62l-9.87,5.73c-0.83-0.48-1.65-1.02-2.44-1.62
						C629.53,406.26,632.82,404.35,636.11,402.44z"/>
				</defs>
				<clipPath id="SVGID_74_">
					<use xlink:href="#SVGID_73_"  style="overflow:visible;"/>
				</clipPath>
				<g class="st46">
					<path class="st8" d="M624.62,406.84l9.87-5.73c1.26,1.11,2.57,2.08,3.93,2.87l-9.87,5.73
						C627.19,408.92,625.87,407.95,624.62,406.84"/>
					<path class="st11" d="M628.54,409.72l9.87-5.73c0.05,0.03,0.09,0.06,0.14,0.08l-9.87,5.73
						C628.64,409.77,628.59,409.74,628.54,409.72"/>
				</g>
			</g>
			<g class="st0">
				<defs>
					<path id="SVGID_75_" class="st0" d="M622.67,376.55c0,0.86,0.05,1.74,0.15,2.62c-3.29,1.91-6.58,3.82-9.87,5.73
						c-0.1-0.89-0.15-1.76-0.15-2.62C615.76,380.57,619.71,378.27,622.67,376.55z"/>
				</defs>
				<clipPath id="SVGID_76_">
					<use xlink:href="#SVGID_75_"  style="overflow:visible;"/>
				</clipPath>
				<g class="st47">
					<path class="st8" d="M612.8,382.29l9.87-5.73c0,1.28,0.11,2.6,0.32,3.94l-9.87,5.73C612.91,384.89,612.8,383.57,612.8,382.29"
						/>
				</g>
			</g>
			<g class="st0">
				<defs>
					<path id="SVGID_77_" class="st0" d="M613.47,382.67l9.87-5.73c-0.03,9.69,6.79,21.5,15.22,26.37l-9.87,5.73
						C620.25,404.17,613.44,392.36,613.47,382.67z"/>
				</defs>
				<clipPath id="SVGID_78_">
					<use xlink:href="#SVGID_77_"  style="overflow:visible;"/>
				</clipPath>
				<g class="st48">
					<path d="M613.47,382.67l9.87-5.73c0,1.23,0.1,2.5,0.31,3.79l-9.87,5.73C613.57,385.17,613.46,383.9,613.47,382.67"/>
					<path d="M613.78,386.46l9.87-5.73c0.38,2.35,1.09,4.74,2.08,7.08l-9.87,5.73C614.87,391.2,614.16,388.8,613.78,386.46"/>
					<path d="M615.85,393.54l9.87-5.73c1.04,2.47,2.38,4.87,3.94,7.06l-9.87,5.73C618.23,398.41,616.89,396.01,615.85,393.54"/>
					<path d="M619.79,400.6l9.87-5.73c1.48,2.09,3.17,3.99,4.98,5.59l-9.87,5.73C622.96,404.59,621.27,402.69,619.79,400.6"/>
					<path d="M624.77,406.19l9.87-5.73c1.21,1.06,2.47,2,3.78,2.76l-9.87,5.73C627.25,408.19,625.98,407.26,624.77,406.19"/>
					<path d="M628.55,408.96l9.87-5.73c0.05,0.03,0.09,0.05,0.14,0.08l-9.87,5.73C628.64,409.01,628.6,408.98,628.55,408.96"/>
				</g>
			</g>
			<g>
				<polygon class="st3" points="612.8,381.33 622.67,375.59 622.67,376.55 612.8,382.29 				"/>
			</g>
			<g>
				<polygon class="st25" points="578.18,361.34 588.05,355.6 622.67,375.59 612.8,381.33 				"/>
			</g>
			<g>
				<polygon class="st49" points="496.44,179.65 506.31,173.92 506.29,179.5 496.43,185.24 				"/>
			</g>
			<g>
				<polygon class="st50" points="481.26,166.33 491.13,160.6 502.37,167.09 492.5,172.82 				"/>
			</g>
			<g>
				<polygon points="578.18,360.56 588.05,354.83 623.34,375.2 613.47,380.94 				"/>
			</g>
			<g>
				<polygon points="613.47,380.94 623.34,375.2 623.33,376.94 613.47,382.67 				"/>
			</g>
			<g class="st0">
				<defs>
					<path id="SVGID_79_" class="st0" d="M523.67,243.66l9.87-5.73c2.9-1.68,6.91-1.45,11.33,1.1l-9.87,5.73
						C530.58,242.21,526.57,241.98,523.67,243.66z"/>
				</defs>
				<clipPath id="SVGID_80_">
					<use xlink:href="#SVGID_79_"  style="overflow:visible;"/>
				</clipPath>
				<g class="st51">
					<path d="M523.67,243.66l9.87-5.73c2.02-1.18,4.59-1.42,7.45-0.59l-9.87,5.73C528.26,242.25,525.69,242.49,523.67,243.66"/>
					<path d="M531.13,243.07l9.87-5.73c1.24,0.36,2.54,0.92,3.88,1.69l-9.87,5.73C533.67,243.99,532.37,243.43,531.13,243.07"/>
				</g>
			</g>
			<g class="st0">
				<defs>
					<path id="SVGID_81_" class="st0" d="M502.81,188.97l9.87-5.73c-0.01,2.48,1.74,5.5,3.9,6.75l-9.87,5.73
						C504.55,194.48,502.8,191.45,502.81,188.97z"/>
				</defs>
				<clipPath id="SVGID_82_">
					<use xlink:href="#SVGID_81_"  style="overflow:visible;"/>
				</clipPath>
				<g class="st52">
					<path class="st8" d="M502.81,188.97l9.87-5.73c0,0.31,0.03,0.64,0.08,0.97l-9.87,5.73
						C502.84,189.61,502.81,189.29,502.81,188.97"/>
					<path class="st6" d="M502.89,189.94l9.87-5.73c0.1,0.6,0.28,1.21,0.53,1.81l-9.87,5.73
						C503.17,191.15,502.99,190.54,502.89,189.94"/>
					<path class="st3" d="M503.42,191.75l9.87-5.73c0.27,0.63,0.61,1.25,1.01,1.81l-9.87,5.73
						C504.03,193,503.69,192.38,503.42,191.75"/>
					<path class="st6" d="M504.43,193.56l9.87-5.73c0.38,0.54,0.81,1.02,1.28,1.43l-9.87,5.73
						C505.24,194.58,504.81,194.09,504.43,193.56"/>
					<path class="st8" d="M505.71,194.99l9.87-5.73c0.31,0.27,0.63,0.51,0.97,0.71l-9.87,5.73
						C506.34,195.5,506.02,195.27,505.71,194.99"/>
					<path class="st11" d="M506.68,195.7l9.87-5.73c0.01,0.01,0.02,0.01,0.03,0.02l-9.87,5.73
						C506.7,195.71,506.69,195.71,506.68,195.7"/>
				</g>
			</g>
			<g>
				<path class="st53" d="M492.5,172.82c2.18,1.26,3.95,4.32,3.94,6.83l-0.02,5.58c-0.01,2.51-1.78,3.52-3.96,2.26L481.22,181
					c-2.18-1.26-3.95-4.32-3.95-6.83l0.02-5.58c0.01-2.51,1.79-3.52,3.97-2.26L492.5,172.82z"/>
			</g>
			<g class="st0">
				<defs>
					<path id="SVGID_83_" class="st0" d="M492.5,172.82l9.87-5.73c2.18,1.26,3.95,4.32,3.94,6.83l-9.87,5.73
						C496.45,177.14,494.69,174.08,492.5,172.82z"/>
				</defs>
				<clipPath id="SVGID_84_">
					<use xlink:href="#SVGID_83_"  style="overflow:visible;"/>
				</clipPath>
				<g class="st54">
					<path class="st35" d="M492.5,172.82l9.87-5.73c0.01,0.01,0.02,0.01,0.04,0.02l-9.87,5.73
						C492.53,172.84,492.51,172.83,492.5,172.82"/>
					<path class="st43" d="M492.54,172.84l9.87-5.73c0.34,0.2,0.66,0.44,0.98,0.71l-9.87,5.73
						C493.2,173.28,492.87,173.04,492.54,172.84"/>
					<path class="st55" d="M493.51,173.56l9.87-5.73c0.47,0.41,0.91,0.91,1.29,1.45L494.8,175
						C494.42,174.46,493.98,173.97,493.51,173.56"/>
					<path class="st49" d="M494.8,175l9.87-5.73c0.4,0.57,0.75,1.19,1.02,1.83l-9.87,5.73C495.55,176.19,495.21,175.57,494.8,175"/>
					<path class="st55" d="M495.82,176.83l9.87-5.73c0.26,0.61,0.44,1.23,0.54,1.84l-9.87,5.73
						C496.26,178.06,496.08,177.44,495.82,176.83"/>
					<path class="st43" d="M496.36,178.67l9.87-5.73c0.05,0.33,0.08,0.66,0.08,0.98l-9.87,5.73
						C496.44,179.33,496.41,179,496.36,178.67"/>
				</g>
			</g>
			<g>
				<polygon class="st3" points="502.83,183.29 512.69,177.55 512.68,183.24 502.81,188.97 				"/>
			</g>
			<g class="st0">
				<defs>
					<path id="SVGID_85_" class="st0" d="M512.69,177.55c-3.29,1.91-6.58,3.82-9.87,5.73c0-1.24,0.44-2.1,1.14-2.51l9.87-5.73
						C513.13,175.45,512.7,176.32,512.69,177.55z"/>
				</defs>
				<clipPath id="SVGID_86_">
					<use xlink:href="#SVGID_85_"  style="overflow:visible;"/>
				</clipPath>
				<g class="st56">
					<path class="st28" d="M503.97,180.78l9.87-5.73c-0.44,0.26-0.77,0.69-0.96,1.28l-9.87,5.73
						C503.19,181.47,503.53,181.03,503.97,180.78"/>
					<path class="st11" d="M503,182.06l9.87-5.73c-0.1,0.3-0.16,0.65-0.17,1.03l-9.87,5.73C502.85,182.7,502.91,182.36,503,182.06"
						/>
					<path class="st8" d="M502.83,183.09l9.87-5.73c0,0.07,0,0.13,0,0.2l-9.87,5.73C502.83,183.22,502.83,183.15,502.83,183.09"/>
				</g>
			</g>
			<g class="st0">
				<defs>
					<path id="SVGID_87_" class="st0" d="M503.97,180.78l9.87-5.73c0.71-0.41,1.7-0.36,2.79,0.27l-9.87,5.73
						C505.67,180.42,504.68,180.36,503.97,180.78z"/>
				</defs>
				<clipPath id="SVGID_88_">
					<use xlink:href="#SVGID_87_"  style="overflow:visible;"/>
				</clipPath>
				<g class="st57">
					<path class="st34" d="M503.97,180.78l9.87-5.73c0.5-0.29,1.13-0.35,1.83-0.14l-9.87,5.73
						C505.09,180.43,504.46,180.49,503.97,180.78"/>
					<path class="st35" d="M505.8,180.63l9.87-5.73c0.31,0.09,0.63,0.23,0.96,0.42l-9.87,5.73
						C506.42,180.86,506.1,180.72,505.8,180.63"/>
				</g>
			</g>
			<g>
				<polygon class="st25" points="628.69,409.8 638.55,404.07 702.01,440.7 692.14,446.44 				"/>
			</g>
			<g>
				<polygon points="628.69,409.04 638.55,403.3 702.01,439.94 692.14,445.67 				"/>
			</g>
			<g class="st0">
				<defs>
					<path id="SVGID_89_" class="st0" d="M702.01,440.7c0.75,0.43,1.49,0.8,2.21,1.1c-3.29,1.91-6.58,3.82-9.87,5.73
						c-0.72-0.3-1.46-0.67-2.21-1.1C695.1,444.72,699.05,442.42,702.01,440.7z"/>
				</defs>
				<clipPath id="SVGID_90_">
					<use xlink:href="#SVGID_89_"  style="overflow:visible;"/>
				</clipPath>
				<g class="st58">
					<path class="st11" d="M692.14,446.44l9.87-5.73c1.34,0.77,2.63,1.33,3.88,1.69l-9.87,5.73
						C694.78,447.77,693.48,447.21,692.14,446.44"/>
				</g>
			</g>
			<g class="st0">
				<defs>
					<path id="SVGID_91_" class="st0" d="M704.43,441.89c-3.29,1.91-6.58,3.82-9.87,5.73c-0.07-0.03-0.15-0.06-0.22-0.09
						c3.29-1.91,6.58-3.82,9.87-5.73C704.29,441.83,704.36,441.86,704.43,441.89z"/>
				</defs>
				<clipPath id="SVGID_92_">
					<use xlink:href="#SVGID_91_"  style="overflow:visible;"/>
				</clipPath>
				<g class="st59">
					<path class="st11" d="M692.14,446.44l9.87-5.73c1.34,0.77,2.63,1.33,3.88,1.69l-9.87,5.73
						C694.78,447.77,693.48,447.21,692.14,446.44"/>
				</g>
			</g>
			<g>
				<polygon points="614.35,308.92 624.21,303.19 624.2,307.36 614.33,313.1 				"/>
			</g>
			<g>
				<polygon points="535,244.77 544.87,239.03 608.33,275.67 598.46,281.4 				"/>
			</g>
			<g class="st0">
				<defs>
					<path id="SVGID_93_" class="st0" d="M704.43,441.89c2.38,0.95,4.59,1.2,6.5,0.82c-3.29,1.91-6.58,3.82-9.87,5.73
						c-1.92,0.39-4.13,0.14-6.5-0.82C697.86,445.71,701.14,443.8,704.43,441.89z"/>
				</defs>
				<clipPath id="SVGID_94_">
					<use xlink:href="#SVGID_93_"  style="overflow:visible;"/>
				</clipPath>
				<g class="st60">
					<path class="st11" d="M692.14,446.44l9.87-5.73c1.34,0.77,2.63,1.33,3.88,1.69l-9.87,5.73
						C694.78,447.77,693.48,447.21,692.14,446.44"/>
					<path class="st28" d="M696.02,448.13l9.87-5.73c2.87,0.83,5.43,0.59,7.46-0.59l-9.87,5.73
						C701.45,448.71,698.89,448.95,696.02,448.13"/>
				</g>
			</g>
			<g class="st0">
				<defs>
					<path id="SVGID_95_" class="st0" d="M598.46,281.4l9.87-5.73c8.79,5.07,15.91,17.42,15.88,27.52l-9.87,5.73
						C614.37,298.82,607.25,286.47,598.46,281.4z"/>
				</defs>
				<clipPath id="SVGID_96_">
					<use xlink:href="#SVGID_95_"  style="overflow:visible;"/>
				</clipPath>
				<g class="st61">
					<path d="M598.46,281.4l9.87-5.73c0.05,0.03,0.09,0.05,0.14,0.08l-9.87,5.73C598.56,281.46,598.51,281.43,598.46,281.4"/>
					<path d="M598.6,281.48l9.87-5.73c1.36,0.8,2.67,1.77,3.93,2.87l-9.87,5.73C601.28,283.25,599.96,282.28,598.6,281.48"/>
					<path d="M602.53,284.36l9.87-5.73c1.9,1.67,3.65,3.66,5.2,5.84l-9.87,5.73C606.18,288.02,604.43,286.03,602.53,284.36"/>
					<path d="M607.73,290.2l9.87-5.73c1.63,2.3,3.03,4.81,4.12,7.39l-9.87,5.73C610.77,295.01,609.37,292.49,607.73,290.2"/>
					<path d="M611.85,297.59l9.87-5.73c1.03,2.44,1.77,4.94,2.17,7.39l-9.87,5.73C613.62,302.53,612.88,300.03,611.85,297.59"/>
					<path d="M614.02,304.98l9.87-5.73c0.22,1.34,0.33,2.66,0.32,3.94l-9.87,5.73C614.35,307.64,614.24,306.32,614.02,304.98"/>
				</g>
			</g>
			<g class="st0">
				<defs>
					<path id="SVGID_97_" class="st0" d="M712.88,441l-9.87,5.73c-2.78,1.61-6.62,1.39-10.87-1.06l9.87-5.73
						C706.26,442.39,710.1,442.62,712.88,441z"/>
				</defs>
				<clipPath id="SVGID_98_">
					<use xlink:href="#SVGID_97_"  style="overflow:visible;"/>
				</clipPath>
				<g class="st62">
					<path d="M692.14,445.67l9.87-5.73c1.29,0.74,2.54,1.28,3.73,1.63l-9.87,5.73C694.68,446.95,693.43,446.42,692.14,445.67"/>
					<path d="M695.87,447.3l9.87-5.73c2.75,0.79,5.2,0.56,7.14-0.56l-9.87,5.73C701.08,447.86,698.62,448.09,695.87,447.3"/>
				</g>
			</g>
			<g>
				<polygon points="475.55,369.66 485.41,363.92 765.85,525.83 755.98,531.56 				"/>
			</g>
			<g class="st0">
				<defs>
					<path id="SVGID_99_" class="st0" d="M713.34,441.8l-9.87,5.73c2.86-1.66,4.64-5.2,4.65-10.21l9.87-5.73
						C717.98,436.61,716.21,440.14,713.34,441.8z"/>
				</defs>
				<clipPath id="SVGID_100_">
					<use xlink:href="#SVGID_99_"  style="overflow:visible;"/>
				</clipPath>
				<g class="st63">
					<path d="M708.13,437.33l9.87-5.73c0,0.28-0.01,0.55-0.02,0.82l-9.87,5.73C708.12,437.87,708.13,437.6,708.13,437.33"/>
					<path d="M708.11,438.14l9.87-5.73c-0.07,1.55-0.31,2.94-0.7,4.17l-9.87,5.73C707.8,441.08,708.05,439.69,708.11,438.14"/>
					<path d="M707.41,442.31l9.87-5.73c-0.78,2.41-2.14,4.18-3.93,5.23l-9.87,5.73C705.27,446.49,706.63,444.72,707.41,442.31"/>
				</g>
			</g>
			<g class="st0">
				<defs>
					<path id="SVGID_101_" class="st0" d="M774.63,526.68l-9.87,5.73c-2.25,1.31-5.36,1.13-8.78-0.85l9.87-5.73
						C769.27,527.81,772.38,527.99,774.63,526.68z"/>
				</defs>
				<clipPath id="SVGID_102_">
					<use xlink:href="#SVGID_101_"  style="overflow:visible;"/>
				</clipPath>
				<g class="st64">
					<path d="M755.98,531.56l9.87-5.73c1.03,0.6,2.04,1.03,3,1.31l-9.87,5.73C758.02,532.6,757.01,532.16,755.98,531.56"/>
					<path d="M758.98,532.87l9.87-5.73c2.22,0.64,4.21,0.45,5.78-0.46l-9.87,5.73C763.19,533.33,761.2,533.52,758.98,532.87"/>
				</g>
			</g>
			<g>
				<polygon points="671.34,367.98 681.2,362.25 681.18,372.44 671.31,378.17 				"/>
			</g>
			<g>
				<polygon points="614.33,313.1 624.2,307.36 662.18,329.29 652.31,335.02 				"/>
			</g>
			<g class="st0">
				<defs>
					<path id="SVGID_103_" class="st0" d="M774.63,526.68l-9.87,5.73c2.22-1.29,3.6-4.03,3.61-7.91l9.87-5.73
						C778.22,522.66,776.85,525.39,774.63,526.68z"/>
				</defs>
				<clipPath id="SVGID_104_">
					<use xlink:href="#SVGID_103_"  style="overflow:visible;"/>
				</clipPath>
				<g class="st65">
					<path class="st8" d="M768.37,524.51l9.87-5.73c0,0.21-0.01,0.42-0.01,0.63l-9.87,5.73
						C768.36,524.93,768.37,524.72,768.37,524.51"/>
					<path class="st11" d="M768.35,525.14l9.87-5.73c-0.05,1.2-0.24,2.28-0.54,3.23l-9.87,5.73
						C768.12,527.41,768.3,526.34,768.35,525.14"/>
					<path class="st28" d="M767.81,528.37l9.87-5.73c-0.6,1.87-1.66,3.24-3.05,4.05l-9.87,5.73
						C766.15,531.61,767.21,530.23,767.81,528.37"/>
				</g>
			</g>
			<g class="st0">
				<defs>
					<path id="SVGID_105_" class="st0" d="M775.1,527.51l-9.87,5.73c2.34-1.36,3.79-4.25,3.8-8.35l9.87-5.73
						C778.89,523.26,777.44,526.15,775.1,527.51z"/>
				</defs>
				<clipPath id="SVGID_106_">
					<use xlink:href="#SVGID_105_"  style="overflow:visible;"/>
				</clipPath>
				<g class="st66">
					<path d="M769.03,524.89l9.87-5.73c0,0.23-0.01,0.45-0.02,0.67l-9.87,5.73C769.03,525.34,769.03,525.12,769.03,524.89"/>
					<path d="M769.02,525.56l9.87-5.73c-0.05,1.27-0.25,2.41-0.58,3.42l-9.87,5.73C768.77,527.97,768.96,526.83,769.02,525.56"/>
					<path d="M768.44,528.98l9.87-5.73c-0.63,1.97-1.75,3.41-3.21,4.26l-9.87,5.73C766.7,532.39,767.81,530.95,768.44,528.98"/>
				</g>
			</g>
			<g class="st0">
				<defs>
					<path id="SVGID_107_" class="st0" d="M652.31,335.02l9.87-5.73c10.53,6.08,19.06,20.86,19.03,32.96l-9.87,5.73
						C671.37,355.88,662.84,341.1,652.31,335.02z"/>
				</defs>
				<clipPath id="SVGID_108_">
					<use xlink:href="#SVGID_107_"  style="overflow:visible;"/>
				</clipPath>
				<g class="st67">
					<path d="M652.31,335.02l9.87-5.73c0.06,0.03,0.11,0.07,0.17,0.1l-9.87,5.73C652.42,335.09,652.37,335.05,652.31,335.02"/>
					<path d="M652.48,335.12l9.87-5.73c1.63,0.96,3.2,2.12,4.71,3.45l-9.87,5.73C655.68,337.24,654.11,336.08,652.48,335.12"/>
					<path d="M657.19,338.57l9.87-5.73c2.27,2,4.38,4.38,6.23,6.99l-9.87,5.73C661.57,342.95,659.46,340.57,657.19,338.57"/>
					<path d="M663.42,345.56l9.87-5.73c1.95,2.75,3.63,5.76,4.93,8.85l-9.87,5.73C667.05,351.32,665.38,348.31,663.42,345.56"/>
					<path d="M668.35,354.41l9.87-5.73c1.23,2.92,2.12,5.92,2.6,8.85l-9.87,5.73C670.47,360.33,669.58,357.33,668.35,354.41"/>
					<path d="M670.95,363.26l9.87-5.73c0.26,1.6,0.39,3.18,0.39,4.72l-9.87,5.73C671.34,366.44,671.21,364.86,670.95,363.26"/>
				</g>
			</g>
			<g>
				<polygon points="708.19,417.8 718.05,412.07 718,431.59 708.13,437.33 				"/>
			</g>
			<g>
				<polygon points="671.31,378.17 681.18,372.44 702.17,384.56 692.3,390.29 				"/>
			</g>
			<g>
				<path d="M692.3,390.29c8.79,5.07,15.91,17.42,15.88,27.51l-0.06,19.52c-0.03,10.09-7.2,14.18-15.99,9.11l-63.46-36.64
					c-8.79-5.07-15.91-17.42-15.88-27.51l0-0.96l-34.62-19.99c-10.52-6.07-19.06-20.87-19.03-32.96l0.04-13.4l-24.34-14.06
					c-8.79-5.08-15.91-17.42-15.88-27.51l0.06-19.52c0.03-10.1,7.2-14.19,15.99-9.12l63.46,36.64c8.79,5.07,15.91,17.42,15.88,27.52
					l-0.01,4.17l37.98,21.93c10.53,6.08,19.06,20.86,19.03,32.96l-0.03,10.19L692.3,390.29z M707.47,436.94l0.06-19.52
					c0.03-9.69-6.79-21.5-15.22-26.37l-21.66-12.5l0.03-10.95c0.03-11.69-8.19-25.94-18.37-31.81l-38.65-22.31l0.01-4.94
					c0.03-9.69-6.78-21.49-15.22-26.36L535,245.54c-8.43-4.87-15.29-0.96-15.32,8.73l-0.06,19.52c-0.03,9.69,6.79,21.49,15.22,26.36
					l25.02,14.44l-0.04,14.17c-0.03,11.69,8.19,25.93,18.36,31.8l35.29,20.37l0,1.73c-0.03,9.69,6.79,21.5,15.22,26.37l63.46,36.64
					C700.58,450.54,707.44,446.63,707.47,436.94"/>
			</g>
			<g class="st0">
				<defs>
					<path id="SVGID_109_" class="st0" d="M692.3,390.29l9.87-5.73c8.79,5.07,15.91,17.42,15.88,27.51l-9.87,5.73
						C708.21,407.71,701.09,395.36,692.3,390.29z"/>
				</defs>
				<clipPath id="SVGID_110_">
					<use xlink:href="#SVGID_109_"  style="overflow:visible;"/>
				</clipPath>
				<g class="st68">
					<path d="M692.3,390.29l9.87-5.73c0.05,0.03,0.09,0.05,0.14,0.08l-9.87,5.73C692.4,390.34,692.35,390.32,692.3,390.29"/>
					<path d="M692.44,390.37l9.87-5.73c1.36,0.8,2.67,1.77,3.93,2.87l-9.87,5.73C695.12,392.14,693.8,391.17,692.44,390.37"/>
					<path d="M696.37,393.25l9.87-5.73c1.9,1.67,3.65,3.66,5.2,5.84l-9.87,5.73C700.03,396.91,698.27,394.92,696.37,393.25"/>
					<path d="M701.57,399.09l9.87-5.73c1.63,2.3,3.03,4.81,4.12,7.39l-9.87,5.73C704.61,403.9,703.21,401.38,701.57,399.09"/>
					<path d="M705.69,406.48l9.87-5.73c1.03,2.44,1.77,4.94,2.17,7.39l-9.87,5.73C707.47,411.42,706.72,408.92,705.69,406.48"/>
					<path d="M707.86,413.87l9.87-5.73c0.22,1.34,0.33,2.65,0.32,3.94l-9.87,5.73C708.19,416.52,708.08,415.2,707.86,413.87"/>
				</g>
			</g>
			<g>
				<polygon class="st25" points="506.71,195.72 516.58,189.99 760.6,330.87 750.73,336.61 				"/>
			</g>
			<g class="st0">
				<defs>
					<path id="SVGID_111_" class="st0" d="M763.38,331.15l-9.87,5.73c-0.71,0.41-1.69,0.35-2.78-0.27l9.87-5.73
						C761.69,331.5,762.67,331.56,763.38,331.15z"/>
				</defs>
				<clipPath id="SVGID_112_">
					<use xlink:href="#SVGID_111_"  style="overflow:visible;"/>
				</clipPath>
				<g class="st69">
					<path class="st11" d="M750.73,336.61l9.87-5.73c0.33,0.19,0.65,0.33,0.95,0.42l-9.87,5.73
						C751.38,336.94,751.06,336.8,750.73,336.61"/>
					<path class="st28" d="M751.69,337.02l9.87-5.73c0.7,0.2,1.33,0.14,1.83-0.14l-9.87,5.73
						C753.02,337.17,752.39,337.23,751.69,337.02"/>
				</g>
			</g>
			<g class="st0">
				<defs>
					<path id="SVGID_113_" class="st0" d="M763.38,331.15l-9.87,5.73c0.7-0.41,1.14-1.27,1.14-2.51l9.87-5.73
						C764.52,329.87,764.08,330.74,763.38,331.15z"/>
				</defs>
				<clipPath id="SVGID_114_">
					<use xlink:href="#SVGID_113_"  style="overflow:visible;"/>
				</clipPath>
				<g class="st70">
					<path class="st43" d="M754.65,334.37l9.87-5.73c0,0.07,0,0.14,0,0.2l-9.87,5.73C754.65,334.51,754.65,334.44,754.65,334.37"/>
					<path class="st35" d="M754.65,334.58l9.87-5.73c-0.02,0.38-0.08,0.72-0.17,1.03l-9.87,5.73
						C754.57,335.3,754.63,334.96,754.65,334.58"/>
					<path class="st34" d="M754.48,335.6l9.87-5.73c-0.19,0.59-0.52,1.02-0.96,1.28l-9.87,5.73
						C753.95,336.63,754.29,336.19,754.48,335.6"/>
				</g>
			</g>
			<g>
				<polygon class="st49" points="754.67,328.69 764.54,322.95 764.52,328.64 754.65,334.37 				"/>
			</g>
			<g>
				<polygon class="st50" points="506.75,181.05 516.62,175.32 760.64,316.2 750.77,321.94 				"/>
			</g>
			<g class="st0">
				<defs>
					<path id="SVGID_115_" class="st0" d="M750.77,321.94l9.87-5.73c2.16,1.25,3.9,4.27,3.89,6.75l-9.87,5.73
						C754.68,326.2,752.93,323.18,750.77,321.94z"/>
				</defs>
				<clipPath id="SVGID_116_">
					<use xlink:href="#SVGID_115_"  style="overflow:visible;"/>
				</clipPath>
				<g class="st71">
					<path class="st35" d="M750.77,321.94l9.87-5.73c0.01,0.01,0.02,0.01,0.03,0.02l-9.87,5.73
						C750.8,321.95,750.79,321.94,750.77,321.94"/>
					<path class="st43" d="M750.81,321.96l9.87-5.73c0.33,0.2,0.66,0.43,0.97,0.71l-9.87,5.73
						C751.47,322.39,751.14,322.15,750.81,321.96"/>
					<path class="st55" d="M751.78,322.66l9.87-5.73c0.46,0.41,0.89,0.9,1.27,1.43l-9.87,5.73
						C752.67,323.56,752.24,323.07,751.78,322.66"/>
					<path class="st49" d="M753.05,324.09l9.87-5.73c0.4,0.56,0.74,1.17,1.01,1.81l-9.87,5.73
						C753.79,325.27,753.45,324.65,753.05,324.09"/>
					<path class="st55" d="M754.06,325.9l9.87-5.73c0.25,0.6,0.44,1.21,0.53,1.82l-9.87,5.73
						C754.49,327.11,754.31,326.5,754.06,325.9"/>
					<path class="st43" d="M754.59,327.71l9.87-5.73c0.05,0.33,0.08,0.66,0.08,0.97l-9.87,5.73
						C754.67,328.37,754.64,328.04,754.59,327.71"/>
				</g>
			</g>
			<g class="st0">
				<defs>
					<path id="SVGID_117_" class="st0" d="M771.25,315.23c4.43,4.71,7.53,11.56,7.51,17.43l-9.87,5.73
						c0.02-5.87-3.09-12.72-7.51-17.43C764.67,319.06,767.96,317.14,771.25,315.23z"/>
				</defs>
				<clipPath id="SVGID_118_">
					<use xlink:href="#SVGID_117_"  style="overflow:visible;"/>
				</clipPath>
				<g class="st72">
					<path class="st6" d="M759.74,319.37l9.87-5.73c1.47,1.3,2.83,2.84,4.03,4.52l-9.87,5.73
						C762.57,322.21,761.21,320.67,759.74,319.37"/>
					<path class="st3" d="M763.77,323.9l9.87-5.73c1.26,1.78,2.35,3.72,3.19,5.73l-9.87,5.73
						C766.12,327.62,765.04,325.68,763.77,323.9"/>
					<path class="st6" d="M766.97,329.63l9.87-5.73c0.79,1.89,1.37,3.83,1.68,5.72l-9.87,5.73
						C768.34,333.45,767.76,331.51,766.97,329.63"/>
					<path class="st8" d="M768.64,335.35l9.87-5.73c0.17,1.04,0.25,2.06,0.25,3.05l-9.87,5.73
						C768.9,337.41,768.81,336.38,768.64,335.35"/>
				</g>
			</g>
			<g>
				<polygon class="st3" points="768.9,338.4 778.76,332.67 778.24,518.77 768.37,524.51 				"/>
			</g>
			<g>
				<path d="M756.59,316.31c7.19,4.15,12.99,14.21,12.97,22.47l-0.53,186.1c-0.02,8.26-5.87,11.6-13.05,7.45L475.54,370.43
					c-7.19-4.15-13-14.21-12.98-22.47l0.53-186.1c0.02-8.26,5.87-11.59,13.06-7.44L756.59,316.31z M768.37,524.51l0.53-186.1
					c0.02-7.83-5.5-17.39-12.31-21.32L476.15,155.17c-6.81-3.93-12.37-0.77-12.39,7.06l-0.53,186.1
					c-0.02,7.82,5.5,17.38,12.31,21.32l280.43,161.91C762.79,535.49,768.35,532.33,768.37,524.51"/>
			</g>
			<g>
				<path class="st73" d="M756.59,317.08c6.81,3.93,12.33,13.49,12.31,21.32l-0.53,186.1c-0.02,7.82-5.58,10.99-12.39,7.06
					L475.55,369.66c-6.81-3.93-12.33-13.5-12.31-21.32l0.53-186.1c0.02-7.83,5.58-10.99,12.39-7.06L756.59,317.08z M708.13,437.32
					l0.06-19.52c0.03-10.09-7.1-22.44-15.88-27.51l-20.99-12.12l0.03-10.19c0.03-12.1-8.5-26.88-19.03-32.96l-37.98-21.93l0.01-4.17
					c0.03-10.1-7.1-22.45-15.88-27.52L535,244.77c-8.79-5.08-15.96-0.98-15.99,9.12l-0.06,19.52c-0.03,10.1,7.09,22.44,15.88,27.51
					l24.34,14.06l-0.04,13.4c-0.03,12.09,8.51,26.88,19.03,32.96l34.62,19.99l0,0.96c-0.03,10.1,7.1,22.44,15.88,27.51l63.46,36.64
					C700.93,451.51,708.1,447.42,708.13,437.32 M754.65,334.37l0.02-5.69c0.01-2.49-1.74-5.51-3.89-6.75L506.75,181.05
					c-2.16-1.25-3.92-0.25-3.93,2.24l-0.02,5.69c-0.01,2.48,1.74,5.5,3.9,6.75l244.02,140.89
					C752.89,337.85,754.65,336.85,754.65,334.37 M496.43,185.23l0.02-5.58c0.01-2.51-1.76-5.57-3.94-6.83l-11.24-6.49
					c-2.18-1.26-3.96-0.25-3.97,2.26l-0.02,5.58c-0.01,2.51,1.76,5.57,3.95,6.83l11.24,6.49
					C494.64,188.75,496.42,187.74,496.43,185.23"/>
			</g>
			<g>
				<path class="st53" d="M750.77,321.94c2.16,1.25,3.9,4.27,3.89,6.75l-0.02,5.69c-0.01,2.48-1.76,3.48-3.92,2.23L506.71,195.72
					c-2.16-1.25-3.91-4.27-3.9-6.75l0.02-5.69c0.01-2.49,1.77-3.48,3.93-2.24L750.77,321.94z"/>
			</g>
			<g>
				<polygon class="st25" points="476.15,155.18 486.02,149.44 766.45,311.35 756.59,317.08 				"/>
			</g>
			<g>
				<polygon points="769.56,338.78 779.43,333.05 778.9,519.15 769.03,524.89 				"/>
			</g>
			<g>
				<polygon points="476.16,154.4 486.02,148.67 766.46,310.58 756.59,316.31 				"/>
			</g>
			<g class="st0">
				<defs>
					<path id="SVGID_119_" class="st0" d="M767.17,311.78c-3.29,1.91-6.58,3.82-9.87,5.73c-0.24-0.15-0.47-0.3-0.71-0.43l9.87-5.73
						C766.69,311.49,766.93,311.63,767.17,311.78z"/>
				</defs>
				<clipPath id="SVGID_120_">
					<use xlink:href="#SVGID_119_"  style="overflow:visible;"/>
				</clipPath>
				<g class="st74">
					<path class="st11" d="M756.59,317.08l9.87-5.73c0.04,0.02,0.07,0.04,0.11,0.06l-9.87,5.73
						C756.66,317.13,756.62,317.1,756.59,317.08"/>
					<path class="st8" d="M756.7,317.15l9.87-5.73c1.05,0.62,2.07,1.37,3.04,2.23l-9.87,5.73
						C758.77,318.52,757.75,317.76,756.7,317.15"/>
				</g>
			</g>
			<g class="st0">
				<defs>
					<path id="SVGID_121_" class="st0" d="M767.17,311.78c1.44,0.93,2.82,2.1,4.08,3.45c-3.29,1.91-6.58,3.82-9.87,5.73
						c-1.27-1.35-2.64-2.52-4.08-3.45C760.59,315.61,763.88,313.69,767.17,311.78z"/>
				</defs>
				<clipPath id="SVGID_122_">
					<use xlink:href="#SVGID_121_"  style="overflow:visible;"/>
				</clipPath>
				<g class="st75">
					<path class="st8" d="M756.7,317.15l9.87-5.73c1.05,0.62,2.07,1.37,3.04,2.23l-9.87,5.73
						C758.77,318.52,757.75,317.76,756.7,317.15"/>
					<path class="st6" d="M759.74,319.37l9.87-5.73c1.47,1.3,2.83,2.84,4.03,4.52l-9.87,5.73
						C762.57,322.21,761.21,320.67,759.74,319.37"/>
				</g>
			</g>
			<g class="st0">
				<defs>
					<path id="SVGID_123_" class="st0" d="M756.59,316.31l9.87-5.73c7.19,4.15,12.99,14.21,12.97,22.47l-9.87,5.73
						C769.58,330.52,763.78,320.46,756.59,316.31z"/>
				</defs>
				<clipPath id="SVGID_124_">
					<use xlink:href="#SVGID_123_"  style="overflow:visible;"/>
				</clipPath>
				<g class="st76">
					<path d="M756.59,316.31l9.87-5.73c0.04,0.02,0.08,0.05,0.12,0.07l-9.87,5.73C756.67,316.36,756.63,316.34,756.59,316.31"/>
					<path d="M756.71,316.38l9.87-5.73c1.11,0.65,2.19,1.45,3.22,2.35l-9.87,5.73C758.9,317.83,757.82,317.03,756.71,316.38"/>
					<path d="M759.93,318.74l9.87-5.73c1.55,1.37,2.98,2.99,4.24,4.76l-9.87,5.73C762.91,321.72,761.47,320.1,759.93,318.74"/>
					<path d="M764.17,323.5l9.87-5.73c1.33,1.87,2.47,3.91,3.35,6.02l-9.87,5.73C766.64,327.41,765.5,325.37,764.17,323.5"/>
					<path d="M767.52,329.51l9.87-5.73c0.84,1.99,1.45,4.04,1.77,6.04l-9.87,5.73C768.97,333.55,768.36,331.51,767.52,329.51"/>
					<path d="M769.29,335.55l9.87-5.73c0.18,1.1,0.27,2.18,0.27,3.23l-9.87,5.73C769.56,337.73,769.47,336.65,769.29,335.55"/>
				</g>
			</g>
		</g>
	</g>
</g>
<g>
	<g>
		<g class="st0">
			<g>
				<polygon class="st77" points="507.02,318.21 516.71,312.58 516.69,320.51 507,326.14 				"/>
			</g>
			<g class="st0">
				<defs>
					<path id="SVGID_125_" class="st0" d="M473.72,266.56l9.69-5.63c2.42-1.41,5.77-1.21,9.46,0.92l-9.69,5.63
						C479.49,265.36,476.14,265.16,473.72,266.56z"/>
				</defs>
				<clipPath id="SVGID_126_">
					<use xlink:href="#SVGID_125_"  style="overflow:visible;"/>
				</clipPath>
				<g class="st78">
					<path class="st79" d="M473.72,266.56l9.69-5.63c2.42-1.41,5.77-1.21,9.46,0.93l-9.69,5.63
						C479.49,265.36,476.14,265.16,473.72,266.56"/>
				</g>
			</g>
			<g class="st0">
				<defs>
					<path id="SVGID_127_" class="st0" d="M511.7,307.92l9.69-5.63c-2.88,1.67-4.67,5.23-4.68,10.29l-9.69,5.63
						C507.03,313.15,508.82,309.59,511.7,307.92z"/>
				</defs>
				<clipPath id="SVGID_128_">
					<use xlink:href="#SVGID_127_"  style="overflow:visible;"/>
				</clipPath>
				<g class="st80">
					<path class="st79" d="M511.7,307.92l9.69-5.63c-0.2,0.12-0.39,0.24-0.58,0.37l-9.69,5.63
						C511.31,308.16,511.5,308.04,511.7,307.92"/>
					<path class="st81" d="M511.12,308.29l9.69-5.63c-0.79,0.56-1.48,1.27-2.06,2.13l-9.69,5.63
						C509.64,309.56,510.33,308.85,511.12,308.29"/>
					<path class="st82" d="M509.06,310.42l9.69-5.63c-0.52,0.76-0.95,1.64-1.27,2.63l-9.69,5.63
						C508.12,312.06,508.55,311.18,509.06,310.42"/>
					<path class="st83" d="M507.79,313.05l9.69-5.63c-0.35,1.05-0.59,2.22-0.7,3.51l-9.69,5.63
						C507.2,315.27,507.44,314.1,507.79,313.05"/>
					<path class="st84" d="M507.09,316.56l9.69-5.63c-0.05,0.53-0.07,1.09-0.07,1.66l-9.69,5.63
						C507.02,317.64,507.04,317.09,507.09,316.56"/>
				</g>
			</g>
			<g class="st0">
				<defs>
					<path id="SVGID_129_" class="st0" d="M511.7,307.92l9.69-5.63c2.92-1.7,6.96-1.46,11.42,1.12l-9.69,5.63
						C518.66,306.46,514.62,306.22,511.7,307.92z"/>
				</defs>
				<clipPath id="SVGID_130_">
					<use xlink:href="#SVGID_129_"  style="overflow:visible;"/>
				</clipPath>
				<g class="st85">
					<path class="st79" d="M511.7,307.92l9.69-5.63c2.92-1.7,6.96-1.46,11.42,1.12l-9.69,5.63
						C518.66,306.46,514.62,306.22,511.7,307.92"/>
				</g>
			</g>
			<g>
				<polygon class="st82" points="556.57,383.82 566.26,378.19 602.98,399.39 593.28,405.02 				"/>
			</g>
			<g>
				<polygon class="st82" points="523.12,309.04 532.81,303.4 566.42,322.81 556.73,328.44 				"/>
			</g>
			<g>
				<polygon class="st77" points="556.74,325.27 566.43,319.64 566.42,322.81 556.73,328.44 				"/>
			</g>
			<g>
				<polygon class="st82" points="483.18,267.49 492.87,261.86 553.17,296.67 543.48,302.3 				"/>
			</g>
			<g class="st0">
				<defs>
					<path id="SVGID_131_" class="st0" d="M614.4,400.51l-9.69,5.63c-2.92,1.7-6.96,1.46-11.42-1.12l9.69-5.63
						C607.44,401.96,611.48,402.2,614.4,400.51z"/>
				</defs>
				<clipPath id="SVGID_132_">
					<use xlink:href="#SVGID_131_"  style="overflow:visible;"/>
				</clipPath>
				<g class="st86">
					<path class="st79" d="M593.28,405.02l9.69-5.63c4.46,2.58,8.5,2.81,11.42,1.12l-9.69,5.63
						C601.79,407.83,597.74,407.59,593.28,405.02"/>
				</g>
			</g>
			<g class="st0">
				<defs>
					<path id="SVGID_133_" class="st0" d="M543.48,302.3l9.69-5.63c7.35,4.24,13.29,14.53,13.26,22.97l-9.69,5.63
						C556.76,316.83,550.83,306.54,543.48,302.3z"/>
				</defs>
				<clipPath id="SVGID_134_">
					<use xlink:href="#SVGID_133_"  style="overflow:visible;"/>
				</clipPath>
				<g class="st87">
					<path class="st79" d="M543.48,302.3l9.69-5.63c0.36,0.21,0.71,0.43,1.06,0.66l-9.69,5.63
						C544.19,302.73,543.83,302.51,543.48,302.3"/>
					<path class="st81" d="M544.54,302.96l9.69-5.63c0.98,0.66,1.94,1.42,2.85,2.27l-9.69,5.63
						C546.48,304.38,545.52,303.62,544.54,302.96"/>
					<path class="st82" d="M547.39,305.23l9.69-5.63c0.85,0.79,1.66,1.66,2.43,2.58l-9.69,5.63
						C549.05,306.89,548.24,306.02,547.39,305.23"/>
					<path class="st83" d="M549.82,307.81l9.69-5.63c0.85,1.02,1.64,2.12,2.37,3.27l-9.69,5.63
						C551.46,309.93,550.67,308.84,549.82,307.81"/>
					<path class="st84" d="M552.19,311.08l9.69-5.63c1.25,1.97,2.29,4.1,3.06,6.25l-9.69,5.63
						C554.48,315.17,553.44,313.05,552.19,311.08"/>
					<path class="st88" d="M555.25,317.32l9.69-5.63c0.39,1.08,0.71,2.18,0.95,3.26l-9.69,5.63
						C555.96,319.5,555.64,318.41,555.25,317.32"/>
					<path class="st84" d="M556.2,320.59l9.69-5.63c0.35,1.59,0.54,3.17,0.54,4.69l-9.69,5.63
						C556.74,323.75,556.55,322.18,556.2,320.59"/>
				</g>
			</g>
			<g>
				<path class="st89" d="M543.48,302.3c7.35,4.24,13.29,14.53,13.26,22.97l-0.01,3.17l-33.61-19.4c-8.86-5.12-16.07-1.01-16.1,9.18
					l-0.02,7.93l-23.94-13.82c-7.34-4.24-13.28-14.52-13.26-22.96l0.04-14.26c0.02-8.44,6-11.85,13.34-7.61L543.48,302.3z"/>
			</g>
			<g class="st0">
				<defs>
					<path id="SVGID_135_" class="st0" d="M614.4,400.51l-9.69,5.63c2.88-1.67,4.67-5.23,4.68-10.3l9.69-5.63
						C619.07,395.27,617.28,398.83,614.4,400.51z"/>
				</defs>
				<clipPath id="SVGID_136_">
					<use xlink:href="#SVGID_135_"  style="overflow:visible;"/>
				</clipPath>
				<g class="st90">
					<path class="st84" d="M609.39,395.84l9.69-5.63c0,0.57-0.03,1.13-0.07,1.66l-9.69,5.63
						C609.36,396.97,609.39,396.41,609.39,395.84"/>
					<path class="st83" d="M609.32,397.5l9.69-5.63c-0.11,1.29-0.35,2.46-0.7,3.51l-9.69,5.63
						C608.97,399.96,609.2,398.79,609.32,397.5"/>
					<path class="st82" d="M608.62,401.01l9.69-5.63c-0.33,0.99-0.76,1.86-1.27,2.63l-9.69,5.63
						C607.86,402.88,608.29,402,608.62,401.01"/>
					<path class="st81" d="M607.34,403.64l9.69-5.63c-0.58,0.86-1.27,1.57-2.06,2.12l-9.69,5.63
						C606.07,405.21,606.76,404.5,607.34,403.64"/>
					<path class="st79" d="M605.29,405.77l9.69-5.63c-0.19,0.13-0.38,0.26-0.58,0.37l-9.69,5.63
						C604.9,406.02,605.1,405.9,605.29,405.77"/>
				</g>
			</g>
			<g>
				<polygon class="st77" points="609.42,385.28 619.11,379.65 619.08,390.21 609.39,395.84 				"/>
			</g>
			<g>
				<polygon class="st77" points="609.44,377.35 619.13,371.71 619.11,379.65 609.42,385.28 				"/>
			</g>
			<g>
				<polygon class="st82" points="556.73,328.44 566.42,322.81 603.13,344 593.44,349.64 				"/>
			</g>
			<g class="st0">
				<defs>
					<path id="SVGID_137_" class="st0" d="M649.29,437.43l-9.69,5.63c2.39-1.39,3.87-4.34,3.88-8.53l9.69-5.63
						C653.15,433.1,651.67,436.05,649.29,437.43z"/>
				</defs>
				<clipPath id="SVGID_138_">
					<use xlink:href="#SVGID_137_"  style="overflow:visible;"/>
				</clipPath>
				<g class="st91">
					<path class="st84" d="M643.47,434.54l9.69-5.63c0,0.47-0.02,0.93-0.06,1.37l-9.69,5.63
						C643.45,435.47,643.47,435.01,643.47,434.54"/>
					<path class="st83" d="M643.41,435.91l9.69-5.63c-0.09,1.07-0.29,2.04-0.58,2.91l-9.69,5.63
						C643.12,437.95,643.32,436.98,643.41,435.91"/>
					<path class="st82" d="M642.83,438.82l9.69-5.63c-0.27,0.82-0.63,1.54-1.06,2.18l-9.69,5.63
						C642.21,440.36,642.56,439.64,642.83,438.82"/>
					<path class="st81" d="M641.78,441l9.69-5.63c-0.48,0.71-1.05,1.3-1.71,1.76l-9.69,5.63C640.72,442.3,641.3,441.71,641.78,441"
						/>
					<path class="st79" d="M640.07,442.76l9.69-5.63c-0.16,0.11-0.32,0.21-0.48,0.31l-9.69,5.63
						C639.76,442.97,639.92,442.87,640.07,442.76"/>
				</g>
			</g>
			<g>
				<path class="st89" d="M593.44,349.64c8.86,5.12,16.03,17.53,16,27.71l-0.02,7.93l-0.03,10.56c-0.03,10.19-7.24,14.29-16.1,9.18
					l-36.71-21.2l-33.61-19.4c-8.86-5.12-16.03-17.52-16-27.71l0.03-10.56l0.02-7.93c0.03-10.18,7.24-14.29,16.1-9.18l33.61,19.4
					L593.44,349.64z"/>
			</g>
			<g class="st0">
				<defs>
					<path id="SVGID_139_" class="st0" d="M593.44,349.64l9.69-5.63c8.86,5.12,16.03,17.53,16,27.71l-9.69,5.63
						C609.47,367.16,602.3,354.75,593.44,349.64z"/>
				</defs>
				<clipPath id="SVGID_140_">
					<use xlink:href="#SVGID_139_"  style="overflow:visible;"/>
				</clipPath>
				<g class="st92">
					<path class="st79" d="M593.44,349.64l9.69-5.63c0.43,0.25,0.86,0.51,1.28,0.8l-9.69,5.63
						C594.3,350.15,593.87,349.88,593.44,349.64"/>
					<path class="st81" d="M594.72,350.43l9.69-5.63c1.19,0.79,2.34,1.71,3.44,2.74l-9.69,5.63
						C597.06,352.15,595.91,351.22,594.72,350.43"/>
					<path class="st82" d="M598.16,353.17l9.69-5.63c1.02,0.95,2.01,2,2.93,3.11l-9.69,5.63
						C600.16,355.17,599.18,354.12,598.16,353.17"/>
					<path class="st83" d="M601.09,356.28l9.69-5.63c1.03,1.24,1.99,2.56,2.86,3.94l-9.69,5.63
						C603.07,358.84,602.11,357.52,601.09,356.28"/>
					<path class="st84" d="M603.95,360.22l9.69-5.63c1.51,2.38,2.77,4.94,3.7,7.54l-9.69,5.63
						C606.72,365.17,605.46,362.61,603.95,360.22"/>
					<path class="st88" d="M607.65,367.76l9.69-5.63c0.47,1.31,0.85,2.62,1.15,3.93l-9.69,5.63
						C608.5,370.39,608.11,369.07,607.65,367.76"/>
					<path class="st84" d="M608.79,371.7l9.69-5.63c0.43,1.92,0.65,3.82,0.65,5.65l-9.69,5.63
						C609.45,375.52,609.22,373.62,608.79,371.7"/>
				</g>
			</g>
			<g>
				<polygon class="st77" points="643.51,420.28 653.21,414.64 653.16,428.91 643.47,434.54 				"/>
			</g>
			<g>
				<polygon class="st82" points="609.42,385.28 619.11,379.65 639.94,391.67 630.25,397.31 				"/>
			</g>
			<g>
				<path class="st89" d="M630.25,397.31c7.35,4.24,13.29,14.53,13.26,22.97l-0.04,14.26c-0.02,8.44-6,11.84-13.35,7.6l-60.3-34.81
					c-7.34-4.24-13.28-14.52-13.26-22.96l0-0.54l36.71,21.2c8.86,5.12,16.07,1.01,16.1-9.18l0.03-10.56L630.25,397.31z"/>
			</g>
			<g class="st0">
				<defs>
					<path id="SVGID_141_" class="st0" d="M630.25,397.31l9.69-5.63c7.35,4.24,13.29,14.53,13.26,22.97l-9.69,5.63
						C643.54,411.83,637.6,401.55,630.25,397.31z"/>
				</defs>
				<clipPath id="SVGID_142_">
					<use xlink:href="#SVGID_141_"  style="overflow:visible;"/>
				</clipPath>
				<g class="st93">
					<path class="st79" d="M630.25,397.31l9.69-5.63c0.36,0.21,0.71,0.43,1.06,0.66l-9.69,5.63
						C630.96,397.73,630.61,397.51,630.25,397.31"/>
					<path class="st81" d="M631.31,397.97l9.69-5.63c0.98,0.66,1.94,1.42,2.85,2.27l-9.69,5.63
						C633.25,399.39,632.3,398.62,631.31,397.97"/>
					<path class="st82" d="M634.16,400.24l9.69-5.63c0.85,0.79,1.66,1.66,2.43,2.58l-9.69,5.63
						C635.82,401.89,635.01,401.03,634.16,400.24"/>
					<path class="st83" d="M636.59,402.82l9.69-5.63c0.85,1.02,1.64,2.12,2.37,3.27l-9.69,5.63
						C638.24,404.94,637.44,403.84,636.59,402.82"/>
					<path class="st84" d="M638.96,406.08l9.69-5.63c1.25,1.97,2.29,4.1,3.06,6.25l-9.69,5.63
						C641.25,410.18,640.21,408.06,638.96,406.08"/>
					<path class="st88" d="M642.03,412.33l9.69-5.63c0.39,1.08,0.71,2.17,0.95,3.26l-9.69,5.63
						C642.73,414.51,642.41,413.41,642.03,412.33"/>
					<path class="st84" d="M642.97,415.59l9.69-5.63c0.35,1.59,0.54,3.17,0.54,4.69l-9.69,5.63
						C643.52,418.76,643.33,417.18,642.97,415.59"/>
				</g>
			</g>
		</g>
	</g>
</g>
</svg>
