<?xml version="1.0" encoding="utf-8"?>
<!-- Generator: Adobe Illustrator 24.0.1, SVG Export Plug-In . SVG Version: 6.00 Build 0)  -->
<svg version="1.1" id="Layer_1" xmlns="http://www.w3.org/2000/svg" xmlns:xlink="http://www.w3.org/1999/xlink" x="0px" y="0px"
	 viewBox="0 0 1366 768" style="enable-background:new 0 0 1366 768;" xml:space="preserve">
<style type="text/css">
	.st0{fill:#00FFFF;}
	.st1{display:none;}
	.st2{fill:#00FFFF;stroke:#FFFFFF;stroke-width:0.5547;stroke-miterlimit:10;}
	.st3{fill:#29ABE2;}
	.st4{fill:#FFFF00;}
	.st5{fill:#FFFFFF;}
	.st6{opacity:0.68;}
	.st7{fill:none;stroke:#000000;stroke-width:0.416;stroke-miterlimit:10;}
	.st8{fill:none;stroke:#29ABE2;stroke-width:0.5547;stroke-miterlimit:10;}
</style>
<path class="st0" d="M449,185"/>
<g class="st1">
</g>
<g>
	<path class="st2" d="M785.18,166.68"/>
	<polygon class="st3" points="680.14,244.01 678,259.61 722.29,297.96 848.93,203.15 851.07,186.55 	"/>
	<path class="st3" d="M679.28,256.29l123.39-93.34c1.11-0.84,2.6-0.8,3.67,0.1l42.36,35.83c1.59,1.35,1.52,3.94-0.14,5.19
		L724.67,297.4c-1.11,0.84-2.61,0.79-3.68-0.12l-41.86-35.82C677.56,260.12,677.63,257.54,679.28,256.29z"/>
	<path class="st0" d="M681.43,241.42l123.39-93.34c1.11-0.84,2.6-0.8,3.67,0.1l42.36,35.83c1.59,1.35,1.52,3.94-0.14,5.19
		l-123.89,93.33c-1.11,0.84-2.61,0.79-3.68-0.12l-41.86-35.82C679.71,245.24,679.79,242.67,681.43,241.42z"/>
	<path class="st4" d="M699.75,233.39l102.22-77.94c0.92-0.7,2.17-0.66,3.08,0.09l36.02,29.92c1.35,1.12,1.33,3.29-0.04,4.33
		l-102.64,77.93c-0.92,0.7-2.18,0.66-3.08-0.1l-35.6-29.91C698.36,236.59,698.39,234.43,699.75,233.39z"/>
	<g>
		<polygon class="st5" points="831.98,173.33 810.46,155.46 810.46,208.42 831.98,192.09 		"/>
		<polygon class="st5" points="766.9,241.5 778.19,232.92 778.19,169.01 766.9,177.63 		"/>
		<polygon class="st5" points="792.71,157.94 782.49,165.73 782.49,229.66 792.71,221.9 		"/>
		<path class="st5" d="M707.73,222.73l-7.98,6.08c-1.37,1.04-1.39,3.19-0.05,4.32l8.03,6.74V222.73z"/>
		<path class="st5" d="M739.46,198.54l-14.52,11.07v44.73l10.36,8.7c0.9,0.76,2.16,0.8,3.08,0.1l1.08-0.82V198.54z"/>
		<path class="st5" d="M841.07,180.89l-3.72-3.09V188l3.67-2.79C842.4,184.17,842.42,182.01,841.07,180.89z"/>
	</g>
	<g class="st6">
		<polygon class="st5" points="831.98,179.05 810.46,161.18 810.46,214.14 831.98,197.81 		"/>
		<polygon class="st5" points="766.9,247.22 778.19,238.64 778.19,174.73 766.9,183.35 		"/>
		<polygon class="st5" points="792.71,163.66 782.49,171.45 782.49,235.38 792.71,227.62 		"/>
		<path class="st5" d="M707.73,228.45l-7.98,6.08c-1.37,1.04-1.39,3.19-0.05,4.32l8.03,6.74V228.45z"/>
		<path class="st5" d="M739.46,204.26l-14.52,11.07v44.73l10.36,8.7c0.9,0.76,2.16,0.8,3.08,0.1l1.08-0.82V204.26z"/>
		<path class="st5" d="M841.07,186.61l-3.72-3.09v10.2l3.67-2.79C842.4,189.89,842.42,187.73,841.07,186.61z"/>
	</g>
	<path class="st7" d="M699.75,228.82l102.22-77.94c0.92-0.7,2.17-0.66,3.08,0.09l36.02,29.92c1.35,1.12,1.33,3.29-0.04,4.33
		l-102.64,77.93c-0.92,0.7-2.18,0.66-3.08-0.1l-35.6-29.91C698.36,232.01,698.39,229.86,699.75,228.82z"/>
	<path class="st8" d="M699.75,234.54l102.22-77.94c0.92-0.7,2.17-0.66,3.08,0.09l36.02,29.92c1.35,1.12,1.33,3.29-0.04,4.33
		l-102.64,77.93c-0.92,0.7-2.18,0.66-3.08-0.1l-35.6-29.91C698.36,237.73,698.39,235.58,699.75,234.54z"/>
	<path class="st8" d="M699.75,234.54l102.22-77.94c0.92-0.7,2.17-0.66,3.08,0.09l36.02,29.92c1.35,1.12,1.33,3.29-0.04,4.33
		l-102.64,77.93c-0.92,0.7-2.18,0.66-3.08-0.1l-35.6-29.91C698.36,237.73,698.39,235.58,699.75,234.54z"/>
	<path class="st3" d="M715.77,268.52l-17.06-14.69c-1.94-1.67-2.08-4.61-0.31-6.56l0,0c1.77-1.95,4.77-2.18,6.71-0.51l17.06,14.69
		c1.94,1.67,2.08,4.61,0.31,6.56l0,0C720.71,269.96,717.71,270.19,715.77,268.52z"/>
	<path class="st0" d="M709.32,283.03l-18.06-15.56c-2.05-1.77-2.61-4.34-1.25-5.73l0,0c1.36-1.4,4.13-1.1,6.18,0.67l18.06,15.56
		c2.05,1.77,2.61,4.34,1.25,5.73l0,0C714.14,285.1,711.37,284.79,709.32,283.03z"/>
	<path class="st0" d="M821.45,213.85l13.44-10.01c1.53-1.14,3.34-0.94,4.05,0.44l0,0c0.71,1.38,0.05,3.42-1.48,4.56l-13.44,10.01
		c-1.53,1.14-3.34,0.94-4.05-0.44l0,0C819.26,217.03,819.93,214.99,821.45,213.85z"/>
</g>
<rect x="454" y="171" class="st4" width="2" height="5"/>
</svg>
