<?xml version="1.0" standalone="no"?><svg xmlns="http://www.w3.org/2000/svg" viewBox="0 0 1440 320"><path fill="#a2d9ff" fill-opacity="1" d="M0,192L34.3,176C68.6,160,137,128,206,144C274.3,160,343,224,411,234.7C480,245,549,203,617,186.7C685.7,171,754,181,823,197.3C891.4,213,960,235,1029,256C1097.1,277,1166,299,1234,261.3C1302.9,224,1371,128,1406,80L1440,32L1440,320L1405.7,320C1371.4,320,1303,320,1234,320C1165.7,320,1097,320,1029,320C960,320,891,320,823,320C754.3,320,686,320,617,320C548.6,320,480,320,411,320C342.9,320,274,320,206,320C137.1,320,69,320,34,320L0,320Z"></path></svg>